SeanSlab_0.ufo
<glyph name="space" format="1">
  <advance width="244"/>
  <unicode hex="0020"/>
  <outline>
    <contour>
      <point x="136" y="671" type="move" name="top"/>
    </contour>
    <contour>
      <point x="136" y="-80" type="move" name="bottom"/>
    </contour>
  </outline>
</glyph>
<glyph name="ampersand" format="1">
  <advance width="493"/>
  <unicode hex="0026"/>
  <outline>
    <contour>
      <point x="470" y="5" type="line"/>
      <point x="391" y="120"/>
      <point x="316" y="234"/>
      <point x="236" y="349" type="curve"/>
      <point x="189" y="423"/>
      <point x="135" y="487"/>
      <point x="135" y="577" type="curve"/>
      <point x="135" y="645"/>
      <point x="159" y="704"/>
      <point x="215" y="704" type="curve"/>
      <point x="274" y="704"/>
      <point x="300" y="648"/>
      <point x="300" y="579" type="curve"/>
      <point x="300" y="495"/>
      <point x="252" y="442"/>
      <point x="186" y="389" type="curve"/>
      <point x="114" y="328"/>
      <point x="63" y="270"/>
      <point x="63" y="177" type="curve"/>
      <point x="63" y="75"/>
      <point x="114" y="-5"/>
      <point x="209" y="-5" type="curve"/>
      <point x="367" y="-5"/>
      <point x="408" y="150"/>
      <point x="444" y="318" type="curve"/>
      <point x="423" y="323"/>
      <point x="444" y="318"/>
      <point x="423" y="323" type="curve"/>
      <point x="389" y="166"/>
      <point x="347" y="18"/>
      <point x="210" y="18" type="curve"/>
      <point x="130" y="18"/>
      <point x="88" y="88"/>
      <point x="88" y="177" type="curve"/>
      <point x="88" y="262"/>
      <point x="136" y="315"/>
      <point x="201" y="369" type="curve"/>
      <point x="272" y="429"/>
      <point x="325" y="488"/>
      <point x="325" y="580" type="curve"/>
      <point x="325" y="662"/>
      <point x="290" y="727"/>
      <point x="216" y="727" type="curve"/>
      <point x="142" y="727"/>
      <point x="110" y="659"/>
      <point x="110" y="577" type="curve"/>
      <point x="110" y="482"/>
      <point x="165" y="414"/>
      <point x="218" y="336" type="curve"/>
      <point x="296" y="221"/>
      <point x="372" y="106"/>
      <point x="451" y="-8" type="curve"/>
    </contour>
  </outline>
</glyph>
<glyph name="two" format="1">
  <advance width="423"/>
  <unicode hex="0032"/>
  <outline>
    <contour>
      <point x="350" y="22" type="curve"/>
      <point x="350" y="142"/>
      <point x="350" y="22"/>
      <point x="350" y="142" type="curve"/>
      <point x="329" y="142"/>
      <point x="350" y="142"/>
      <point x="329" y="142" type="curve"/>
      <point x="329" y="22"/>
      <point x="329" y="142"/>
      <point x="329" y="22" type="curve"/>
      <point x="350" y="22"/>
      <point x="329" y="22"/>
    </contour>
    <contour>
      <point x="50" y="0" type="curve"/>
      <point x="164" y="0"/>
      <point x="247" y="0"/>
      <point x="350" y="0" type="curve"/>
      <point x="350" y="22"/>
      <point x="350" y="0"/>
      <point x="350" y="22" type="curve"/>
      <point x="243" y="22"/>
      <point x="157" y="22"/>
      <point x="50" y="22" type="curve"/>
      <point x="50" y="0"/>
      <point x="50" y="22"/>
    </contour>
    <contour>
      <point x="83" y="563" type="curve"/>
      <point x="111" y="637"/>
      <point x="137" y="704"/>
      <point x="212" y="704" type="curve"/>
      <point x="298" y="704"/>
      <point x="325" y="627"/>
      <point x="325" y="526" type="curve"/>
      <point x="325" y="406"/>
      <point x="247" y="291"/>
      <point x="209" y="237" type="curve"/>
      <point x="156" y="165"/>
      <point x="103" y="93"/>
      <point x="50" y="22" type="curve"/>
      <point x="61" y="0"/>
      <point x="50" y="22"/>
      <point x="61" y="0" type="curve"/>
      <point x="115" y="73"/>
      <point x="170" y="146"/>
      <point x="224" y="220" type="curve"/>
      <point x="267" y="279"/>
      <point x="350" y="399"/>
      <point x="350" y="527" type="curve"/>
      <point x="350" y="642"/>
      <point x="314" y="727"/>
      <point x="213" y="727" type="curve"/>
      <point x="129" y="727"/>
      <point x="90" y="657"/>
      <point x="61" y="573" type="curve"/>
      <point x="83" y="563"/>
      <point x="61" y="573"/>
    </contour>
  </outline>
</glyph>
<glyph name="S" format="1">
  <advance width="443"/>
  <unicode hex="0053"/>
  <outline>
    <contour>
      <point x="224" y="825" type="move" name="top"/>
    </contour>
    <contour>
      <point x="210" y="-80" type="move" name="bottom"/>
    </contour>
    <contour>
      <point x="326" y="663" type="curve"/>
      <point x="326" y="543"/>
      <point x="326" y="673"/>
      <point x="326" y="553" type="curve"/>
      <point x="348" y="553"/>
      <point x="326" y="553"/>
      <point x="348" y="553" type="curve"/>
      <point x="348" y="673"/>
      <point x="348" y="543"/>
      <point x="348" y="663" type="curve"/>
      <point x="326" y="663"/>
      <point x="348" y="663"/>
    </contour>
    <contour>
      <point x="92" y="58" type="curve"/>
      <point x="92" y="178"/>
      <point x="92" y="48"/>
      <point x="92" y="168" type="curve"/>
      <point x="70" y="168"/>
      <point x="92" y="168"/>
      <point x="70" y="168" type="curve"/>
      <point x="70" y="48"/>
      <point x="70" y="178"/>
      <point x="70" y="58" type="curve"/>
      <point x="92" y="58"/>
      <point x="70" y="58"/>
    </contour>
    <contour>
      <point x="70" y="58" type="curve"/>
      <point x="102" y="25"/>
      <point x="149" y="-5"/>
      <point x="208" y="-5" type="curve"/>
      <point x="312" y="-5"/>
      <point x="371" y="62"/>
      <point x="371" y="169" type="curve"/>
      <point x="371" y="273"/>
      <point x="317" y="328"/>
      <point x="232" y="388" type="curve"/>
      <point x="160" y="437"/>
      <point x="110" y="479"/>
      <point x="110" y="563" type="curve"/>
      <point x="110" y="645"/>
      <point x="146" y="704"/>
      <point x="220" y="704" type="curve"/>
      <point x="268" y="704"/>
      <point x="314" y="673"/>
      <point x="336" y="645" type="curve"/>
      <point x="341" y="652"/>
      <point x="344" y="657"/>
      <point x="348" y="663" type="curve"/>
      <point x="314" y="700"/>
      <point x="276" y="726"/>
      <point x="221" y="726" type="curve"/>
      <point x="130" y="726"/>
      <point x="85" y="659"/>
      <point x="85" y="562" type="curve"/>
      <point x="85" y="469"/>
      <point x="138" y="423"/>
      <point x="216" y="369" type="curve"/>
      <point x="295" y="315"/>
      <point x="347" y="264"/>
      <point x="347" y="169" type="curve"/>
      <point x="347" y="82"/>
      <point x="291" y="17"/>
      <point x="210" y="17" type="curve"/>
      <point x="155" y="17"/>
      <point x="113" y="48"/>
      <point x="83" y="78" type="curve"/>
      <point x="78" y="70"/>
      <point x="75" y="66"/>
    </contour>
  </outline>
</glyph>
<glyph name="U" format="1">
  <advance width="625"/>
  <unicode hex="0055"/>
  <outline>
    <contour>
      <point x="315" y="825" type="move" name="top"/>
    </contour>
    <contour>
      <point x="315" y="-80" type="move" name="bottom"/>
    </contour>
    <contour>
      <point x="488" y="700" type="curve"/>
      <point x="609" y="700"/>
      <point x="479" y="700"/>
      <point x="600" y="700" type="curve"/>
      <point x="600" y="722"/>
      <point x="600" y="700"/>
      <point x="600" y="722" type="curve"/>
      <point x="560" y="722"/>
      <point x="528" y="722"/>
      <point x="488" y="722" type="curve"/>
      <point x="488" y="700"/>
      <point x="488" y="722"/>
    </contour>
    <contour>
      <point x="488" y="722" type="curve"/>
      <point x="448" y="722"/>
      <point x="416" y="722"/>
      <point x="376" y="722" type="curve"/>
      <point x="376" y="700"/>
      <point x="376" y="722"/>
      <point x="376" y="700" type="curve"/>
      <point x="497" y="700"/>
      <point x="367" y="700"/>
      <point x="488" y="700" type="curve"/>
      <point x="488" y="722"/>
      <point x="488" y="700"/>
    </contour>
    <contour>
      <point x="138" y="722" type="curve"/>
      <point x="98" y="722"/>
      <point x="66" y="722"/>
      <point x="26" y="722" type="curve"/>
      <point x="26" y="700"/>
      <point x="26" y="722"/>
      <point x="26" y="700" type="curve"/>
      <point x="147" y="700"/>
      <point x="17" y="700"/>
      <point x="138" y="700" type="curve"/>
      <point x="138" y="722"/>
      <point x="138" y="700"/>
    </contour>
    <contour>
      <point x="138" y="700" type="curve"/>
      <point x="259" y="700"/>
      <point x="129" y="700"/>
      <point x="250" y="700" type="curve"/>
      <point x="250" y="722"/>
      <point x="250" y="700"/>
      <point x="250" y="722" type="curve"/>
      <point x="210" y="722"/>
      <point x="178" y="722"/>
      <point x="138" y="722" type="curve"/>
      <point x="138" y="700"/>
      <point x="138" y="722"/>
    </contour>
    <contour>
      <point x="124" y="721" type="curve"/>
      <point x="124" y="571"/>
      <point x="124" y="421"/>
      <point x="124" y="271" type="curve"/>
      <point x="124" y="106"/>
      <point x="165" y="-5"/>
      <point x="313" y="-5" type="curve"/>
      <point x="457" y="-5"/>
      <point x="500" y="103"/>
      <point x="500" y="263" type="curve"/>
      <point x="500" y="416"/>
      <point x="500" y="569"/>
      <point x="500" y="721" type="curve"/>
      <point x="478" y="721"/>
      <point x="499" y="721"/>
      <point x="477" y="721" type="curve"/>
      <point x="477" y="567"/>
      <point x="477" y="413"/>
      <point x="477" y="259" type="curve"/>
      <point x="477" y="117"/>
      <point x="438" y="19"/>
      <point x="315" y="19" type="curve"/>
      <point x="181" y="19"/>
      <point x="147" y="124"/>
      <point x="147" y="275" type="curve"/>
      <point x="147" y="424"/>
      <point x="147" y="573"/>
      <point x="147" y="721" type="curve"/>
      <point x="125" y="721"/>
      <point x="146" y="721"/>
    </contour>
  </outline>
</glyph>
<glyph name="underscore" format="1">
  <advance width="478"/>
  <unicode hex="005F"/>
  <outline>
    <contour>
      <point x="-1" y="-210" type="curve"/>
      <point x="159" y="-210"/>
      <point x="318" y="-210"/>
      <point x="477" y="-210" type="curve"/>
      <point x="477" y="-188"/>
      <point x="477" y="-210"/>
      <point x="477" y="-188" type="curve"/>
      <point x="318" y="-188"/>
      <point x="159" y="-188"/>
      <point x="-1" y="-188" type="curve"/>
      <point x="-1" y="-210"/>
      <point x="-1" y="-188"/>
    </contour>
  </outline>
</glyph>
<glyph name="j" format="1">
  <advance width="246"/>
  <unicode hex="006A"/>
  <outline>
    <contour>
      <point x="132" y="533" type="curve"/>
      <point x="91" y="533"/>
      <point x="59" y="533"/>
      <point x="19" y="533" type="curve"/>
      <point x="19" y="511"/>
      <point x="19" y="533"/>
      <point x="19" y="511" type="curve"/>
      <point x="141" y="511"/>
      <point x="10" y="511"/>
      <point x="132" y="511" type="curve"/>
      <point x="132" y="533"/>
      <point x="132" y="511"/>
    </contour>
    <contour>
      <point x="7" y="-301" type="curve"/>
      <point x="13" y="-302"/>
      <point x="21" y="-304"/>
      <point x="29" y="-304" type="curve"/>
      <point x="106" y="-304"/>
      <point x="144" y="-227"/>
      <point x="144" y="-142" type="curve"/>
      <point x="144" y="83"/>
      <point x="144" y="308"/>
      <point x="144" y="533" type="curve"/>
      <point x="120" y="533"/>
      <point x="144" y="533"/>
      <point x="120" y="533" type="curve"/>
      <point x="120" y="308"/>
      <point x="120" y="83"/>
      <point x="120" y="-142" type="curve"/>
      <point x="120" y="-207"/>
      <point x="90" y="-278"/>
      <point x="30" y="-278" type="curve"/>
      <point x="24" y="-278"/>
      <point x="16" y="-277"/>
      <point x="12" y="-276" type="curve"/>
      <point x="8" y="-297"/>
      <point x="11" y="-280"/>
    </contour>
    <contour>
      <point x="151" y="686" type="curve"/>
      <point x="151" y="697"/>
      <point x="144" y="703"/>
      <point x="133" y="703" type="curve"/>
      <point x="122" y="703"/>
      <point x="116" y="696"/>
      <point x="116" y="686" type="curve"/>
      <point x="151" y="686"/>
      <point x="116" y="686"/>
      <point x="151" y="686" type="curve"/>
      <point x="151" y="675"/>
      <point x="144" y="669"/>
      <point x="133" y="669" type="curve"/>
      <point x="122" y="669"/>
      <point x="116" y="675"/>
      <point x="116" y="686" type="curve"/>
      <point x="151" y="686"/>
      <point x="116" y="686"/>
    </contour>
  </outline>
</glyph>
<glyph name="k" format="1">
  <advance width="453"/>
  <unicode hex="006B"/>
  <outline>
    <contour>
      <point x="272" y="-80" type="move" name="bottom"/>
    </contour>
    <contour>
      <point x="119" y="22" type="curve"/>
      <point x="-2" y="22"/>
      <point x="128" y="22"/>
      <point x="7" y="22" type="curve"/>
      <point x="7" y="0"/>
      <point x="7" y="22"/>
      <point x="7" y="0" type="curve"/>
      <point x="47" y="0"/>
      <point x="79" y="0"/>
      <point x="119" y="0" type="curve"/>
      <point x="119" y="22"/>
      <point x="119" y="0"/>
    </contour>
    <contour>
      <point x="337" y="0" type="curve"/>
      <point x="373" y="0"/>
      <point x="401" y="0"/>
      <point x="438" y="0" type="curve"/>
      <point x="438" y="22"/>
      <point x="438" y="0"/>
      <point x="438" y="22" type="curve"/>
      <point x="329" y="22"/>
      <point x="446" y="22"/>
      <point x="337" y="22" type="curve"/>
      <point x="337" y="0"/>
      <point x="337" y="22"/>
    </contour>
    <contour>
      <point x="319" y="511" type="curve"/>
      <point x="420" y="511"/>
      <point x="311" y="511"/>
      <point x="412" y="511" type="curve"/>
      <point x="412" y="533"/>
      <point x="412" y="511"/>
      <point x="412" y="533" type="curve"/>
      <point x="378" y="533"/>
      <point x="352" y="533"/>
      <point x="319" y="533" type="curve"/>
      <point x="319" y="511"/>
      <point x="319" y="533"/>
    </contour>
    <contour>
      <point x="119" y="0" type="curve"/>
      <point x="153" y="0"/>
      <point x="111" y="0"/>
      <point x="212" y="0" type="curve"/>
      <point x="212" y="22"/>
      <point x="212" y="0"/>
      <point x="212" y="22" type="curve"/>
      <point x="111" y="22"/>
      <point x="220" y="22"/>
      <point x="119" y="22" type="curve"/>
      <point x="119" y="0"/>
      <point x="119" y="22"/>
    </contour>
    <contour>
      <point x="319" y="533" type="curve"/>
      <point x="281" y="533"/>
      <point x="251" y="533"/>
      <point x="213" y="533" type="curve"/>
      <point x="213" y="511"/>
      <point x="213" y="533"/>
      <point x="213" y="511" type="curve"/>
      <point x="328" y="511"/>
      <point x="204" y="511"/>
      <point x="319" y="511" type="curve"/>
      <point x="319" y="533"/>
      <point x="319" y="511"/>
    </contour>
    <contour>
      <point x="120" y="800" type="curve"/>
      <point x="80" y="800"/>
      <point x="48" y="800"/>
      <point x="8" y="800" type="curve"/>
      <point x="8" y="778"/>
      <point x="8" y="800"/>
      <point x="8" y="778" type="curve"/>
      <point x="129" y="778"/>
      <point x="-1" y="778"/>
      <point x="120" y="778" type="curve"/>
      <point x="120" y="800"/>
      <point x="120" y="778"/>
    </contour>
    <contour>
      <point x="131" y="0" type="curve"/>
      <point x="131" y="800" type="line"/>
      <point x="107" y="800"/>
      <point x="131" y="800"/>
      <point x="107" y="800" type="curve"/>
      <point x="107" y="533"/>
      <point x="107" y="267"/>
      <point x="107" y="0" type="curve"/>
      <point x="131" y="0"/>
      <point x="107" y="0"/>
    </contour>
    <contour>
      <point x="312" y="533" type="curve"/>
      <point x="117" y="275" type="line"/>
      <point x="153" y="275"/>
      <point x="113" y="275"/>
      <point x="149" y="275" type="curve"/>
      <point x="345" y="533" type="line"/>
      <point x="308" y="533"/>
      <point x="349" y="533"/>
    </contour>
    <contour>
      <point x="363" y="0" type="curve"/>
      <point x="149" y="275" type="line"/>
      <point x="113" y="275"/>
      <point x="153" y="275"/>
      <point x="117" y="275" type="curve"/>
      <point x="330" y="0" type="line"/>
      <point x="367" y="0"/>
      <point x="326" y="0"/>
    </contour>
  </outline>
</glyph>
<glyph name="r" format="1">
  <advance width="351"/>
  <unicode hex="0072"/>
  <outline>
    <contour>
      <point x="148" y="671" type="move" name="top"/>
    </contour>
    <contour>
      <point x="146" y="-80" type="move" name="bottom"/>
    </contour>
    <contour>
      <point x="146" y="0" type="curve"/>
      <point x="184" y="0"/>
      <point x="214" y="0"/>
      <point x="251" y="0" type="curve"/>
      <point x="251" y="22"/>
      <point x="251" y="0"/>
      <point x="251" y="22" type="curve"/>
      <point x="137" y="22"/>
      <point x="260" y="22"/>
      <point x="146" y="22" type="curve"/>
      <point x="146" y="0"/>
      <point x="146" y="22"/>
    </contour>
    <contour>
      <point x="146" y="22" type="curve"/>
      <point x="25" y="22"/>
      <point x="155" y="22"/>
      <point x="34" y="22" type="curve"/>
      <point x="34" y="0"/>
      <point x="34" y="22"/>
      <point x="34" y="0" type="curve"/>
      <point x="74" y="0"/>
      <point x="106" y="0"/>
      <point x="146" y="0" type="curve"/>
      <point x="146" y="22"/>
      <point x="146" y="0"/>
    </contour>
    <contour>
      <point x="146" y="533" type="curve"/>
      <point x="106" y="533"/>
      <point x="74" y="533"/>
      <point x="34" y="533" type="curve"/>
      <point x="34" y="511"/>
      <point x="34" y="533"/>
      <point x="34" y="511" type="curve"/>
      <point x="155" y="511"/>
      <point x="25" y="511"/>
      <point x="146" y="511" type="curve"/>
      <point x="146" y="533"/>
      <point x="146" y="511"/>
    </contour>
    <contour>
      <point x="158" y="0" type="curve"/>
      <point x="158" y="178"/>
      <point x="158" y="355"/>
      <point x="158" y="533" type="curve"/>
      <point x="134" y="533"/>
      <point x="158" y="533"/>
      <point x="134" y="533" type="curve"/>
      <point x="134" y="355"/>
      <point x="134" y="178"/>
      <point x="134" y="0" type="curve"/>
      <point x="158" y="0"/>
      <point x="134" y="0"/>
    </contour>
    <contour>
      <point x="152" y="371" type="curve"/>
      <point x="168" y="456"/>
      <point x="242" y="516"/>
      <point x="321" y="516" type="curve"/>
      <point x="321" y="543"/>
      <point x="321" y="511"/>
      <point x="321" y="538" type="curve"/>
      <point x="235" y="538"/>
      <point x="161" y="483"/>
      <point x="140" y="394" type="curve"/>
      <point x="153" y="381"/>
      <point x="144" y="381"/>
    </contour>
  </outline>
</glyph>
<glyph name="t" format="1">
  <advance width="314"/>
  <unicode hex="0074"/>
  <outline>
    <contour>
      <point x="204" y="-80" type="move" name="bottom"/>
    </contour>
    <contour>
      <point x="20" y="511" type="curve"/>
      <point x="294" y="511" type="line"/>
      <point x="294" y="533"/>
      <point x="294" y="511"/>
      <point x="294" y="533" type="curve"/>
      <point x="20" y="533" type="line"/>
      <point x="20" y="511"/>
      <point x="20" y="533"/>
    </contour>
    <contour>
      <point x="275" y="46" type="curve"/>
      <point x="254" y="30"/>
      <point x="236" y="19"/>
      <point x="209" y="19" type="curve"/>
      <point x="152" y="19"/>
      <point x="140" y="72"/>
      <point x="140" y="145" type="curve"/>
      <point x="140" y="681" type="line"/>
      <point x="116" y="657" type="line"/>
      <point x="116" y="143" type="line"/>
      <point x="116" y="56"/>
      <point x="133" y="-5"/>
      <point x="207" y="-5" type="curve"/>
      <point x="239" y="-5"/>
      <point x="261" y="5"/>
      <point x="287" y="24" type="curve"/>
      <point x="275" y="46"/>
      <point x="287" y="24"/>
    </contour>
  </outline>
</glyph>
<glyph name="x" format="1">
  <advance width="524"/>
  <unicode hex="0078"/>
  <outline>
    <contour>
      <point x="117" y="22" type="curve"/>
      <point x="-4" y="22"/>
      <point x="126" y="22"/>
      <point x="5" y="22" type="curve"/>
      <point x="5" y="0"/>
      <point x="5" y="22"/>
      <point x="5" y="0" type="curve"/>
      <point x="45" y="0"/>
      <point x="77" y="0"/>
      <point x="117" y="0" type="curve"/>
      <point x="117" y="22"/>
      <point x="117" y="0"/>
    </contour>
    <contour>
      <point x="406" y="22" type="curve"/>
      <point x="297" y="22"/>
      <point x="423" y="22"/>
      <point x="314" y="22" type="curve"/>
      <point x="314" y="0"/>
      <point x="314" y="22"/>
      <point x="314" y="0" type="curve"/>
      <point x="350" y="0"/>
      <point x="370" y="0"/>
      <point x="406" y="0" type="curve"/>
      <point x="406" y="22"/>
      <point x="406" y="0"/>
    </contour>
    <contour>
      <point x="406" y="0" type="curve"/>
      <point x="446" y="0"/>
      <point x="478" y="0"/>
      <point x="518" y="0" type="curve"/>
      <point x="518" y="22"/>
      <point x="518" y="0"/>
      <point x="518" y="22" type="curve"/>
      <point x="397" y="22"/>
      <point x="527" y="22"/>
      <point x="406" y="22" type="curve"/>
      <point x="406" y="0"/>
      <point x="406" y="22"/>
    </contour>
    <contour>
      <point x="117" y="0" type="curve"/>
      <point x="153" y="0"/>
      <point x="100" y="0"/>
      <point x="209" y="0" type="curve"/>
      <point x="209" y="22"/>
      <point x="209" y="0"/>
      <point x="209" y="22" type="curve"/>
      <point x="100" y="22"/>
      <point x="226" y="22"/>
      <point x="117" y="22" type="curve"/>
      <point x="117" y="0"/>
      <point x="117" y="22"/>
    </contour>
    <contour>
      <point x="394" y="511" type="curve"/>
      <point x="516" y="511"/>
      <point x="385" y="511"/>
      <point x="507" y="511" type="curve"/>
      <point x="507" y="533"/>
      <point x="507" y="511"/>
      <point x="507" y="533" type="curve"/>
      <point x="466" y="533"/>
      <point x="434" y="533"/>
      <point x="394" y="533" type="curve"/>
      <point x="394" y="511"/>
      <point x="394" y="533"/>
    </contour>
    <contour>
      <point x="131" y="533" type="curve"/>
      <point x="91" y="533"/>
      <point x="59" y="533"/>
      <point x="19" y="533" type="curve"/>
      <point x="19" y="511"/>
      <point x="19" y="533"/>
      <point x="19" y="511" type="curve"/>
      <point x="140" y="511"/>
      <point x="10" y="511"/>
      <point x="131" y="511" type="curve"/>
      <point x="131" y="533"/>
      <point x="131" y="511"/>
    </contour>
    <contour>
      <point x="131" y="511" type="curve"/>
      <point x="238" y="511"/>
      <point x="106" y="511"/>
      <point x="213" y="511" type="curve"/>
      <point x="213" y="533"/>
      <point x="213" y="511"/>
      <point x="213" y="533" type="curve"/>
      <point x="177" y="533"/>
      <point x="167" y="533"/>
      <point x="131" y="533" type="curve"/>
      <point x="131" y="511"/>
      <point x="131" y="533"/>
    </contour>
    <contour>
      <point x="394" y="533" type="curve"/>
      <point x="358" y="533"/>
      <point x="348" y="533"/>
      <point x="312" y="533" type="curve"/>
      <point x="312" y="511"/>
      <point x="312" y="533"/>
      <point x="312" y="511" type="curve"/>
      <point x="419" y="511"/>
      <point x="287" y="511"/>
      <point x="394" y="511" type="curve"/>
      <point x="394" y="533"/>
      <point x="394" y="511"/>
    </contour>
    <contour>
      <point x="430" y="0" type="curve"/>
      <point x="332" y="178"/>
      <point x="235" y="355"/>
      <point x="137" y="533" type="curve"/>
      <point x="110" y="533"/>
      <point x="137" y="533"/>
      <point x="110" y="533" type="curve"/>
      <point x="207" y="355"/>
      <point x="304" y="178"/>
      <point x="400" y="0" type="curve"/>
      <point x="430" y="0"/>
      <point x="400" y="0"/>
    </contour>
    <contour>
      <point x="390" y="533" type="curve"/>
      <point x="291" y="355"/>
      <point x="192" y="178"/>
      <point x="94" y="0" type="curve"/>
      <point x="124" y="0"/>
      <point x="94" y="0"/>
      <point x="124" y="0" type="curve"/>
      <point x="222" y="178"/>
      <point x="319" y="355"/>
      <point x="417" y="533" type="curve"/>
      <point x="390" y="533"/>
      <point x="417" y="533"/>
    </contour>
  </outline>
</glyph>
<glyph name="cedilla" format="1">
  <advance width="286"/>
  <unicode hex="00B8"/>
  <outline>
    <contour>
      <point x="120" y="2" type="move" name="_bottom"/>
    </contour>
    <contour>
      <point x="102" y="17" type="curve"/>
      <point x="91" y="-10"/>
      <point x="81" y="-37"/>
      <point x="71" y="-63" type="curve"/>
      <point x="88" y="-81"/>
      <point x="71" y="-63"/>
      <point x="88" y="-81" type="curve"/>
      <point x="98" y="-53"/>
      <point x="110" y="-25"/>
      <point x="120" y="2" type="curve"/>
      <point x="102" y="17"/>
      <point x="120" y="2"/>
    </contour>
    <contour>
      <point x="88" y="-81" type="curve"/>
      <point x="97" y="-72"/>
      <point x="104" y="-68"/>
      <point x="117" y="-68" type="curve"/>
      <point x="144" y="-68"/>
      <point x="150" y="-94"/>
      <point x="150" y="-125" type="curve"/>
      <point x="150" y="-157"/>
      <point x="137" y="-180"/>
      <point x="108" y="-180" type="curve"/>
      <point x="89" y="-180"/>
      <point x="75" y="-176"/>
      <point x="61" y="-163" type="curve"/>
      <point x="51" y="-180"/>
      <point x="61" y="-163"/>
      <point x="51" y="-180" type="curve"/>
      <point x="68" y="-195"/>
      <point x="84" y="-202"/>
      <point x="107" y="-202" type="curve"/>
      <point x="151" y="-202"/>
      <point x="175" y="-170"/>
      <point x="175" y="-125" type="curve"/>
      <point x="175" y="-81"/>
      <point x="158" y="-46"/>
      <point x="119" y="-46" type="curve"/>
      <point x="100" y="-46"/>
      <point x="87" y="-52"/>
      <point x="71" y="-63" type="curve"/>
      <point x="88" y="-81"/>
      <point x="71" y="-63"/>
    </contour>
  </outline>
</glyph>
<glyph name="Atilde" format="1">
  <advance width="598"/>
  <unicode hex="00C3"/>
  <outline>
    <contour>
      <point x="89" y="22" type="curve"/>
      <point x="-43" y="22"/>
      <point x="109" y="22"/>
      <point x="-23" y="22" type="curve"/>
      <point x="-23" y="0"/>
      <point x="-23" y="22"/>
      <point x="-23" y="0" type="curve"/>
      <point x="21" y="0"/>
      <point x="45" y="0"/>
      <point x="89" y="0" type="curve"/>
      <point x="89" y="22"/>
      <point x="89" y="0"/>
    </contour>
    <contour>
      <point x="89" y="0" type="curve"/>
      <point x="135" y="0"/>
      <point x="69" y="0"/>
      <point x="206" y="0" type="curve"/>
      <point x="206" y="22"/>
      <point x="206" y="0"/>
      <point x="206" y="22" type="curve"/>
      <point x="69" y="22"/>
      <point x="226" y="22"/>
      <point x="89" y="22" type="curve"/>
      <point x="89" y="0"/>
      <point x="89" y="22"/>
    </contour>
    <contour>
      <point x="472" y="0" type="curve"/>
      <point x="516" y="0"/>
      <point x="540" y="0"/>
      <point x="584" y="0" type="curve"/>
      <point x="584" y="22"/>
      <point x="584" y="0"/>
      <point x="584" y="22" type="curve"/>
      <point x="452" y="22"/>
      <point x="604" y="22"/>
      <point x="472" y="22" type="curve"/>
      <point x="472" y="0"/>
      <point x="472" y="22"/>
    </contour>
    <contour>
      <point x="472" y="22" type="curve"/>
      <point x="334" y="22"/>
      <point x="492" y="22"/>
      <point x="354" y="22" type="curve"/>
      <point x="354" y="0"/>
      <point x="354" y="22"/>
      <point x="354" y="0" type="curve"/>
      <point x="400" y="0"/>
      <point x="426" y="0"/>
      <point x="472" y="0" type="curve"/>
      <point x="472" y="22"/>
      <point x="472" y="0"/>
    </contour>
    <contour>
      <point x="407" y="277" type="curve"/>
      <point x="326" y="277"/>
      <point x="246" y="277"/>
      <point x="165" y="277" type="curve"/>
      <point x="155" y="254"/>
      <point x="165" y="277"/>
      <point x="155" y="254" type="curve"/>
      <point x="242" y="254"/>
      <point x="328" y="254"/>
      <point x="415" y="254" type="curve"/>
      <point x="407" y="277"/>
      <point x="415" y="254"/>
    </contour>
    <contour>
      <point x="492" y="0" type="curve"/>
      <point x="429" y="241"/>
      <point x="366" y="481"/>
      <point x="303" y="722" type="curve"/>
      <point x="281" y="722"/>
      <point x="303" y="722"/>
      <point x="281" y="722" type="curve"/>
      <point x="343" y="481"/>
      <point x="405" y="241"/>
      <point x="467" y="0" type="curve"/>
      <point x="492" y="0"/>
      <point x="467" y="0"/>
    </contour>
    <contour>
      <point x="94" y="0" type="curve"/>
      <point x="163" y="241"/>
      <point x="232" y="481"/>
      <point x="301" y="722" type="curve"/>
      <point x="279" y="722"/>
      <point x="301" y="722"/>
      <point x="279" y="722" type="curve"/>
      <point x="209" y="481"/>
      <point x="138" y="241"/>
      <point x="67" y="0" type="curve"/>
      <point x="94" y="0"/>
      <point x="67" y="0"/>
    </contour>
    <contour>
      <point x="407" y="949" type="curve"/>
      <point x="398" y="899"/>
      <point x="393" y="846"/>
      <point x="359" y="846" type="curve"/>
      <point x="329" y="846"/>
      <point x="316" y="868"/>
      <point x="300" y="895" type="curve"/>
      <point x="281" y="925"/>
      <point x="266" y="950"/>
      <point x="231" y="950" type="curve"/>
      <point x="174" y="950"/>
      <point x="166" y="894"/>
      <point x="157" y="831" type="curve"/>
      <point x="177" y="825"/>
      <point x="157" y="831"/>
      <point x="177" y="825" type="curve"/>
      <point x="185" y="878"/>
      <point x="189" y="928"/>
      <point x="231" y="928" type="curve"/>
      <point x="259" y="928"/>
      <point x="268" y="905"/>
      <point x="282" y="881" type="curve"/>
      <point x="302" y="849"/>
      <point x="320" y="825"/>
      <point x="357" y="825" type="curve"/>
      <point x="414" y="825"/>
      <point x="417" y="884"/>
      <point x="428" y="945" type="curve"/>
      <point x="407" y="949"/>
      <point x="428" y="945"/>
    </contour>
  </outline>
</glyph>
<glyph name="Idieresis" format="1">
  <advance width="304"/>
  <unicode hex="00CF"/>
  <outline>
    <contour>
      <point x="152" y="722" type="curve"/>
      <point x="108" y="722"/>
      <point x="84" y="722"/>
      <point x="40" y="722" type="curve"/>
      <point x="40" y="700"/>
      <point x="40" y="722"/>
      <point x="40" y="700" type="curve"/>
      <point x="172" y="700"/>
      <point x="20" y="700"/>
      <point x="152" y="700" type="curve"/>
      <point x="152" y="722"/>
      <point x="152" y="700"/>
    </contour>
    <contour>
      <point x="152" y="700" type="curve"/>
      <point x="285" y="700"/>
      <point x="132" y="700"/>
      <point x="265" y="700" type="curve"/>
      <point x="265" y="722"/>
      <point x="265" y="700"/>
      <point x="265" y="722" type="curve"/>
      <point x="220" y="722"/>
      <point x="196" y="722"/>
      <point x="152" y="722" type="curve"/>
      <point x="152" y="700"/>
      <point x="152" y="722"/>
    </contour>
    <contour>
      <point x="152" y="0" type="curve"/>
      <point x="196" y="0"/>
      <point x="220" y="0"/>
      <point x="265" y="0" type="curve"/>
      <point x="265" y="22"/>
      <point x="265" y="0"/>
      <point x="265" y="22" type="curve"/>
      <point x="132" y="22"/>
      <point x="285" y="22"/>
      <point x="152" y="22" type="curve"/>
      <point x="152" y="0"/>
      <point x="152" y="22"/>
    </contour>
    <contour>
      <point x="152" y="22" type="curve"/>
      <point x="20" y="22"/>
      <point x="172" y="22"/>
      <point x="40" y="22" type="curve"/>
      <point x="40" y="0"/>
      <point x="40" y="22"/>
      <point x="40" y="0" type="curve"/>
      <point x="84" y="0"/>
      <point x="108" y="0"/>
      <point x="152" y="0" type="curve"/>
      <point x="152" y="22"/>
      <point x="152" y="0"/>
    </contour>
    <contour>
      <point x="164" y="0" type="curve"/>
      <point x="164" y="241"/>
      <point x="164" y="481"/>
      <point x="164" y="722" type="curve"/>
      <point x="140" y="722"/>
      <point x="164" y="722"/>
      <point x="140" y="722" type="curve"/>
      <point x="140" y="481"/>
      <point x="140" y="241"/>
      <point x="140" y="0" type="curve"/>
      <point x="164" y="0"/>
      <point x="140" y="0"/>
    </contour>
    <contour>
      <point x="128" y="839" type="curve"/>
      <point x="128" y="850"/>
      <point x="121" y="856"/>
      <point x="110" y="856" type="curve"/>
      <point x="99" y="856"/>
      <point x="93" y="849"/>
      <point x="93" y="839" type="curve"/>
      <point x="128" y="839"/>
      <point x="93" y="839"/>
      <point x="128" y="839" type="curve"/>
      <point x="128" y="828"/>
      <point x="121" y="822"/>
      <point x="110" y="822" type="curve"/>
      <point x="99" y="822"/>
      <point x="93" y="828"/>
      <point x="93" y="839" type="curve"/>
      <point x="128" y="839"/>
      <point x="93" y="839"/>
    </contour>
    <contour>
      <point x="212" y="839" type="curve"/>
      <point x="212" y="850"/>
      <point x="205" y="856"/>
      <point x="194" y="856" type="curve"/>
      <point x="183" y="856"/>
      <point x="177" y="849"/>
      <point x="177" y="839" type="curve"/>
      <point x="212" y="839"/>
      <point x="177" y="839"/>
      <point x="212" y="839" type="curve"/>
      <point x="212" y="828"/>
      <point x="205" y="822"/>
      <point x="194" y="822" type="curve"/>
      <point x="183" y="822"/>
      <point x="177" y="828"/>
      <point x="177" y="839" type="curve"/>
      <point x="212" y="839"/>
      <point x="177" y="839"/>
    </contour>
  </outline>
</glyph>
<glyph name="icircumflex" format="1">
  <advance width="254"/>
  <unicode hex="00EE"/>
  <outline>
    <contour>
      <point x="145" y="22" type="curve"/>
      <point x="24" y="22"/>
      <point x="154" y="22"/>
      <point x="33" y="22" type="curve"/>
      <point x="33" y="0"/>
      <point x="33" y="22"/>
      <point x="33" y="0" type="curve"/>
      <point x="74" y="0"/>
      <point x="105" y="0"/>
      <point x="145" y="0" type="curve"/>
      <point x="145" y="22"/>
      <point x="145" y="0"/>
    </contour>
    <contour>
      <point x="145" y="0" type="curve"/>
      <point x="183" y="0"/>
      <point x="212" y="0"/>
      <point x="250" y="0" type="curve"/>
      <point x="250" y="22"/>
      <point x="250" y="0"/>
      <point x="250" y="22" type="curve"/>
      <point x="136" y="22"/>
      <point x="259" y="22"/>
      <point x="145" y="22" type="curve"/>
      <point x="145" y="0"/>
      <point x="145" y="22"/>
    </contour>
    <contour>
      <point x="145" y="533" type="curve"/>
      <point x="105" y="533"/>
      <point x="74" y="533"/>
      <point x="33" y="533" type="curve"/>
      <point x="33" y="511"/>
      <point x="33" y="533"/>
      <point x="33" y="511" type="curve"/>
      <point x="154" y="511"/>
      <point x="24" y="511"/>
      <point x="145" y="511" type="curve"/>
      <point x="145" y="533"/>
      <point x="145" y="511"/>
    </contour>
    <contour>
      <point x="158" y="0" type="curve"/>
      <point x="158" y="178"/>
      <point x="158" y="355"/>
      <point x="158" y="533" type="curve"/>
      <point x="132" y="533"/>
      <point x="158" y="533"/>
      <point x="132" y="533" type="curve"/>
      <point x="132" y="355"/>
      <point x="132" y="178"/>
      <point x="132" y="0" type="curve"/>
      <point x="158" y="0"/>
      <point x="132" y="0"/>
    </contour>
    <contour>
      <point x="80" y="671" type="line"/>
      <point x="153" y="837" type="line"/>
      <point x="122" y="837" type="line"/>
      <point x="56" y="671" type="line"/>
    </contour>
    <contour>
      <point x="229" y="671" type="line"/>
      <point x="163" y="837" type="line"/>
      <point x="132" y="837" type="line"/>
      <point x="205" y="671" type="line"/>
    </contour>
  </outline>
</glyph>
<glyph name="idieresis" format="1">
  <advance width="260"/>
  <unicode hex="00EF"/>
  <outline>
    <contour>
      <point x="146" y="22" type="curve"/>
      <point x="25" y="22"/>
      <point x="155" y="22"/>
      <point x="34" y="22" type="curve"/>
      <point x="34" y="0"/>
      <point x="34" y="22"/>
      <point x="34" y="0" type="curve"/>
      <point x="74" y="0"/>
      <point x="106" y="0"/>
      <point x="146" y="0" type="curve"/>
      <point x="146" y="22"/>
      <point x="146" y="0"/>
    </contour>
    <contour>
      <point x="146" y="0" type="curve"/>
      <point x="183" y="0"/>
      <point x="213" y="0"/>
      <point x="251" y="0" type="curve"/>
      <point x="251" y="22"/>
      <point x="251" y="0"/>
      <point x="251" y="22" type="curve"/>
      <point x="137" y="22"/>
      <point x="260" y="22"/>
      <point x="146" y="22" type="curve"/>
      <point x="146" y="0"/>
      <point x="146" y="22"/>
    </contour>
    <contour>
      <point x="146" y="533" type="curve"/>
      <point x="106" y="533"/>
      <point x="74" y="533"/>
      <point x="34" y="533" type="curve"/>
      <point x="34" y="511"/>
      <point x="34" y="533"/>
      <point x="34" y="511" type="curve"/>
      <point x="155" y="511"/>
      <point x="25" y="511"/>
      <point x="146" y="511" type="curve"/>
      <point x="146" y="533"/>
      <point x="146" y="511"/>
    </contour>
    <contour>
      <point x="159" y="0" type="curve"/>
      <point x="159" y="178"/>
      <point x="159" y="355"/>
      <point x="159" y="533" type="curve"/>
      <point x="133" y="533"/>
      <point x="159" y="533"/>
      <point x="133" y="533" type="curve"/>
      <point x="133" y="355"/>
      <point x="133" y="178"/>
      <point x="133" y="0" type="curve"/>
      <point x="159" y="0"/>
      <point x="133" y="0"/>
    </contour>
    <contour>
      <point x="119" y="685" type="curve"/>
      <point x="119" y="696"/>
      <point x="112" y="702"/>
      <point x="101" y="702" type="curve"/>
      <point x="90" y="702"/>
      <point x="84" y="695"/>
      <point x="84" y="685" type="curve"/>
      <point x="119" y="685"/>
      <point x="84" y="685"/>
      <point x="119" y="685" type="curve"/>
      <point x="119" y="674"/>
      <point x="112" y="668"/>
      <point x="101" y="668" type="curve"/>
      <point x="90" y="668"/>
      <point x="84" y="674"/>
      <point x="84" y="685" type="curve"/>
      <point x="119" y="685"/>
      <point x="84" y="685"/>
    </contour>
    <contour>
      <point x="203" y="685" type="curve"/>
      <point x="203" y="696"/>
      <point x="196" y="702"/>
      <point x="185" y="702" type="curve"/>
      <point x="174" y="702"/>
      <point x="168" y="695"/>
      <point x="168" y="685" type="curve"/>
      <point x="203" y="685"/>
      <point x="168" y="685"/>
      <point x="203" y="685" type="curve"/>
      <point x="203" y="674"/>
      <point x="196" y="668"/>
      <point x="185" y="668" type="curve"/>
      <point x="174" y="668"/>
      <point x="168" y="674"/>
      <point x="168" y="685" type="curve"/>
      <point x="203" y="685"/>
      <point x="168" y="685"/>
    </contour>
  </outline>
</glyph>
<glyph name="odieresis" format="1">
  <advance width="454"/>
  <unicode hex="00F6"/>
  <outline>
    <contour>
      <point x="88" y="268" type="curve"/>
      <point x="88" y="406"/>
      <point x="114" y="517"/>
      <point x="225" y="517" type="curve"/>
      <point x="341" y="517"/>
      <point x="366" y="404"/>
      <point x="366" y="266" type="curve"/>
      <point x="366" y="129"/>
      <point x="340" y="17"/>
      <point x="228" y="17" type="curve"/>
      <point x="108" y="17"/>
      <point x="88" y="131"/>
      <point x="88" y="268" type="curve"/>
      <point x="64" y="268"/>
      <point x="88" y="268"/>
      <point x="64" y="268" type="curve"/>
      <point x="64" y="117"/>
      <point x="95" y="-5"/>
      <point x="227" y="-5" type="curve"/>
      <point x="358" y="-5"/>
      <point x="390" y="115"/>
      <point x="390" y="266" type="curve"/>
      <point x="390" y="417"/>
      <point x="358" y="538"/>
      <point x="226" y="538" type="curve"/>
      <point x="96" y="538"/>
      <point x="64" y="417"/>
      <point x="64" y="268" type="curve"/>
      <point x="88" y="268"/>
      <point x="64" y="268"/>
    </contour>
    <contour>
      <point x="199" y="685" type="curve"/>
      <point x="199" y="696"/>
      <point x="192" y="702"/>
      <point x="181" y="702" type="curve"/>
      <point x="170" y="702"/>
      <point x="164" y="695"/>
      <point x="164" y="685" type="curve"/>
      <point x="199" y="685"/>
      <point x="164" y="685"/>
      <point x="199" y="685" type="curve"/>
      <point x="199" y="674"/>
      <point x="192" y="668"/>
      <point x="181" y="668" type="curve"/>
      <point x="170" y="668"/>
      <point x="164" y="674"/>
      <point x="164" y="685" type="curve"/>
      <point x="199" y="685"/>
      <point x="164" y="685"/>
    </contour>
    <contour>
      <point x="283" y="685" type="curve"/>
      <point x="283" y="696"/>
      <point x="276" y="702"/>
      <point x="265" y="702" type="curve"/>
      <point x="254" y="702"/>
      <point x="248" y="695"/>
      <point x="248" y="685" type="curve"/>
      <point x="283" y="685"/>
      <point x="248" y="685"/>
      <point x="283" y="685" type="curve"/>
      <point x="283" y="674"/>
      <point x="276" y="668"/>
      <point x="265" y="668" type="curve"/>
      <point x="254" y="668"/>
      <point x="248" y="674"/>
      <point x="248" y="685" type="curve"/>
      <point x="283" y="685"/>
      <point x="248" y="685"/>
    </contour>
  </outline>
</glyph>
<glyph name="thorn" format="1">
  <advance width="448"/>
  <unicode hex="00FE"/>
  <outline>
    <contour>
      <point x="78" y="-278" type="curve"/>
      <point x="-43" y="-278"/>
      <point x="87" y="-278"/>
      <point x="-34" y="-278" type="curve"/>
      <point x="-34" y="-300"/>
      <point x="-34" y="-278"/>
      <point x="-34" y="-300" type="curve"/>
      <point x="6" y="-300"/>
      <point x="38" y="-300"/>
      <point x="78" y="-300" type="curve"/>
      <point x="78" y="-278"/>
      <point x="78" y="-300"/>
    </contour>
    <contour>
      <point x="78" y="-300" type="curve"/>
      <point x="116" y="-300"/>
      <point x="145" y="-300"/>
      <point x="183" y="-300" type="curve"/>
      <point x="183" y="-278"/>
      <point x="183" y="-300"/>
      <point x="183" y="-278" type="curve"/>
      <point x="69" y="-278"/>
      <point x="192" y="-278"/>
      <point x="78" y="-278" type="curve"/>
      <point x="78" y="-300"/>
      <point x="78" y="-278"/>
    </contour>
    <contour>
      <point x="79" y="800" type="curve"/>
      <point x="39" y="800"/>
      <point x="7" y="800"/>
      <point x="-33" y="800" type="curve"/>
      <point x="-33" y="778"/>
      <point x="-33" y="800"/>
      <point x="-33" y="778" type="curve"/>
      <point x="88" y="778"/>
      <point x="-42" y="778"/>
      <point x="79" y="778" type="curve"/>
      <point x="79" y="800"/>
      <point x="79" y="778"/>
    </contour>
    <contour>
      <point x="84" y="423" type="curve"/>
      <point x="107" y="464"/>
      <point x="158" y="517"/>
      <point x="227" y="517" type="curve"/>
      <point x="334" y="517"/>
      <point x="360" y="404"/>
      <point x="360" y="276" type="curve"/>
      <point x="362" y="139"/>
      <point x="335" y="17"/>
      <point x="226" y="17" type="curve"/>
      <point x="159" y="17"/>
      <point x="124" y="65"/>
      <point x="86" y="122" type="curve"/>
      <point x="70" y="110"/>
      <point x="86" y="122"/>
      <point x="70" y="110" type="curve"/>
      <point x="110" y="46"/>
      <point x="151" y="-5"/>
      <point x="226" y="-5" type="curve"/>
      <point x="355" y="-5"/>
      <point x="384" y="128"/>
      <point x="384" y="278" type="curve"/>
      <point x="384" y="417"/>
      <point x="349" y="538"/>
      <point x="228" y="538" type="curve"/>
      <point x="153" y="538"/>
      <point x="97" y="484"/>
      <point x="72" y="438" type="curve"/>
      <point x="84" y="423"/>
      <point x="72" y="438"/>
    </contour>
    <contour>
      <point x="90" y="-300" type="curve"/>
      <point x="90" y="-22"/>
      <point x="90" y="522"/>
      <point x="90" y="800" type="curve"/>
      <point x="66" y="800"/>
      <point x="90" y="800"/>
      <point x="66" y="800" type="curve"/>
      <point x="66" y="522"/>
      <point x="66" y="-22"/>
      <point x="66" y="-300" type="curve"/>
      <point x="90" y="-300"/>
      <point x="66" y="-300"/>
    </contour>
  </outline>
</glyph>
<glyph name="ydieresis" format="1">
  <advance width="546"/>
  <unicode hex="00FF"/>
  <outline>
    <contour>
      <point x="183" y="-278" type="curve"/>
      <point x="62" y="-278"/>
      <point x="192" y="-278"/>
      <point x="71" y="-278" type="curve"/>
      <point x="71" y="-300"/>
      <point x="71" y="-278"/>
      <point x="71" y="-300" type="curve"/>
      <point x="111" y="-300"/>
      <point x="143" y="-300"/>
      <point x="183" y="-300" type="curve"/>
      <point x="183" y="-278"/>
      <point x="183" y="-300"/>
    </contour>
    <contour>
      <point x="117" y="533" type="curve"/>
      <point x="77" y="533"/>
      <point x="45" y="533"/>
      <point x="5" y="533" type="curve"/>
      <point x="5" y="511"/>
      <point x="5" y="533"/>
      <point x="5" y="511" type="curve"/>
      <point x="126" y="511"/>
      <point x="-4" y="511"/>
      <point x="117" y="511" type="curve"/>
      <point x="117" y="533"/>
      <point x="117" y="511"/>
    </contour>
    <contour>
      <point x="117" y="511" type="curve"/>
      <point x="228" y="511"/>
      <point x="108" y="511"/>
      <point x="219" y="511" type="curve"/>
      <point x="219" y="533"/>
      <point x="219" y="511"/>
      <point x="219" y="533" type="curve"/>
      <point x="182" y="533"/>
      <point x="154" y="533"/>
      <point x="117" y="533" type="curve"/>
      <point x="117" y="511"/>
      <point x="117" y="533"/>
    </contour>
    <contour>
      <point x="430" y="533" type="curve"/>
      <point x="397" y="533"/>
      <point x="371" y="533"/>
      <point x="338" y="533" type="curve"/>
      <point x="338" y="511"/>
      <point x="338" y="533"/>
      <point x="338" y="511" type="curve"/>
      <point x="439" y="511"/>
      <point x="329" y="511"/>
      <point x="430" y="511" type="curve"/>
      <point x="430" y="533"/>
      <point x="430" y="511"/>
    </contour>
    <contour>
      <point x="430" y="511" type="curve"/>
      <point x="549" y="511"/>
      <point x="421" y="511"/>
      <point x="540" y="511" type="curve"/>
      <point x="540" y="533"/>
      <point x="540" y="511"/>
      <point x="540" y="533" type="curve"/>
      <point x="501" y="533"/>
      <point x="470" y="533"/>
      <point x="430" y="533" type="curve"/>
      <point x="430" y="511"/>
      <point x="430" y="533"/>
    </contour>
    <contour>
      <point x="284" y="7" type="curve"/>
      <point x="122" y="533" type="line"/>
      <point x="94" y="533"/>
      <point x="122" y="533"/>
      <point x="94" y="533" type="curve"/>
      <point x="261" y="-1" type="line"/>
      <point x="284" y="-1"/>
      <point x="261" y="7"/>
    </contour>
    <contour>
      <point x="188" y="-300" type="curve"/>
      <point x="452" y="533" type="line"/>
      <point x="425" y="533"/>
      <point x="452" y="533"/>
      <point x="425" y="533" type="curve"/>
      <point x="160" y="-300" type="line"/>
      <point x="188" y="-300"/>
      <point x="160" y="-300"/>
    </contour>
    <contour>
      <point x="268" y="686" type="curve"/>
      <point x="268" y="697"/>
      <point x="261" y="703"/>
      <point x="250" y="703" type="curve"/>
      <point x="239" y="703"/>
      <point x="233" y="696"/>
      <point x="233" y="686" type="curve"/>
      <point x="268" y="686"/>
      <point x="233" y="686"/>
      <point x="268" y="686" type="curve"/>
      <point x="268" y="675"/>
      <point x="261" y="669"/>
      <point x="250" y="669" type="curve"/>
      <point x="239" y="669"/>
      <point x="233" y="675"/>
      <point x="233" y="686" type="curve"/>
      <point x="268" y="686"/>
      <point x="233" y="686"/>
    </contour>
    <contour>
      <point x="352" y="686" type="curve"/>
      <point x="352" y="697"/>
      <point x="345" y="703"/>
      <point x="334" y="703" type="curve"/>
      <point x="323" y="703"/>
      <point x="317" y="696"/>
      <point x="317" y="686" type="curve"/>
      <point x="352" y="686"/>
      <point x="317" y="686"/>
      <point x="352" y="686" type="curve"/>
      <point x="352" y="675"/>
      <point x="345" y="669"/>
      <point x="334" y="669" type="curve"/>
      <point x="323" y="669"/>
      <point x="317" y="675"/>
      <point x="317" y="686" type="curve"/>
      <point x="352" y="686"/>
      <point x="317" y="686"/>
    </contour>
  </outline>
</glyph>
<glyph name="eogonek" format="1">
  <advance width="425"/>
  <unicode hex="0119"/>
  <outline>
    <contour>
      <point x="80" y="273" type="curve"/>
      <point x="171" y="273"/>
      <point x="263" y="273"/>
      <point x="354" y="273" type="curve"/>
      <point x="359" y="273"/>
      <point x="354" y="273"/>
      <point x="359" y="273" type="curve"/>
      <point x="359" y="276"/>
      <point x="359" y="273"/>
      <point x="359" y="276" type="curve"/>
      <point x="359" y="285"/>
      <point x="359" y="294"/>
      <point x="359" y="303" type="curve"/>
      <point x="359" y="435"/>
      <point x="331" y="538"/>
      <point x="218" y="538" type="curve"/>
      <point x="94" y="538"/>
      <point x="67" y="425"/>
      <point x="67" y="281" type="curve"/>
      <point x="67" y="122"/>
      <point x="96" y="-5"/>
      <point x="230" y="-5" type="curve"/>
      <point x="288" y="-5"/>
      <point x="324" y="26"/>
      <point x="359" y="76" type="curve"/>
      <point x="341" y="90"/>
      <point x="359" y="76"/>
      <point x="341" y="90" type="curve"/>
      <point x="312" y="48"/>
      <point x="277" y="17"/>
      <point x="230" y="17" type="curve"/>
      <point x="115" y="17"/>
      <point x="92" y="136"/>
      <point x="92" y="281" type="curve"/>
      <point x="92" y="410"/>
      <point x="112" y="516"/>
      <point x="216" y="516" type="curve"/>
      <point x="315" y="516"/>
      <point x="336" y="422"/>
      <point x="336" y="305" type="curve"/>
      <point x="336" y="295"/>
      <point x="336" y="286"/>
      <point x="336" y="276" type="curve"/>
      <point x="339" y="279"/>
      <point x="343" y="282"/>
      <point x="345" y="285" type="curve"/>
      <point x="348" y="289"/>
      <point x="351" y="291"/>
      <point x="354" y="295" type="curve"/>
      <point x="263" y="295"/>
      <point x="171" y="295"/>
      <point x="80" y="295" type="curve"/>
      <point x="80" y="273"/>
      <point x="80" y="295"/>
    </contour>
    <contour>
      <point x="226" y="10" type="curve"/>
      <point x="178" y="-15"/>
      <point x="147" y="-51"/>
      <point x="147" y="-104" type="curve"/>
      <point x="147" y="-156"/>
      <point x="170" y="-199"/>
      <point x="217" y="-199" type="curve"/>
      <point x="242" y="-199"/>
      <point x="259" y="-184"/>
      <point x="277" y="-167" type="curve"/>
      <point x="272" y="-162"/>
      <point x="268" y="-159"/>
      <point x="263" y="-154" type="curve"/>
      <point x="249" y="-167"/>
      <point x="237" y="-177"/>
      <point x="219" y="-177" type="curve"/>
      <point x="184" y="-177"/>
      <point x="170" y="-143"/>
      <point x="170" y="-104" type="curve"/>
      <point x="170" y="-59"/>
      <point x="195" y="-28"/>
      <point x="235" y="-5" type="curve"/>
      <point x="232" y="0"/>
      <point x="229" y="5"/>
    </contour>
  </outline>
</glyph>
<glyph name="Ecaron" format="1">
  <advance width="501"/>
  <unicode hex="011A"/>
  <outline>
    <contour>
      <point x="452" y="11" type="curve"/>
      <point x="452" y="131"/>
      <point x="452" y="1"/>
      <point x="452" y="121" type="curve"/>
      <point x="430" y="121"/>
      <point x="452" y="121"/>
      <point x="430" y="121" type="curve"/>
      <point x="430" y="1"/>
      <point x="430" y="131"/>
      <point x="430" y="11" type="curve"/>
      <point x="452" y="11"/>
      <point x="430" y="11"/>
    </contour>
    <contour>
      <point x="406" y="711" type="curve"/>
      <point x="406" y="591"/>
      <point x="406" y="721"/>
      <point x="406" y="601" type="curve"/>
      <point x="428" y="601"/>
      <point x="406" y="601"/>
      <point x="428" y="601" type="curve"/>
      <point x="428" y="721"/>
      <point x="428" y="591"/>
      <point x="428" y="711" type="curve"/>
      <point x="406" y="711"/>
      <point x="428" y="711"/>
    </contour>
    <contour>
      <point x="152" y="22" type="curve"/>
      <point x="20" y="22"/>
      <point x="172" y="22"/>
      <point x="40" y="22" type="curve"/>
      <point x="40" y="0"/>
      <point x="40" y="22"/>
      <point x="40" y="0" type="curve"/>
      <point x="84" y="0"/>
      <point x="108" y="0"/>
      <point x="152" y="0" type="curve"/>
      <point x="152" y="22"/>
      <point x="152" y="0"/>
    </contour>
    <contour>
      <point x="152" y="722" type="curve"/>
      <point x="108" y="722"/>
      <point x="84" y="722"/>
      <point x="40" y="722" type="curve"/>
      <point x="40" y="700"/>
      <point x="40" y="722"/>
      <point x="40" y="700" type="curve"/>
      <point x="172" y="700"/>
      <point x="20" y="700"/>
      <point x="152" y="700" type="curve"/>
      <point x="152" y="722"/>
      <point x="152" y="700"/>
    </contour>
    <contour>
      <point x="154" y="363" type="curve"/>
      <point x="231" y="363"/>
      <point x="307" y="363"/>
      <point x="384" y="363" type="curve"/>
      <point x="384" y="385"/>
      <point x="384" y="363"/>
      <point x="384" y="385" type="curve"/>
      <point x="307" y="385"/>
      <point x="231" y="385"/>
      <point x="154" y="385" type="curve"/>
      <point x="154" y="363"/>
      <point x="154" y="385"/>
    </contour>
    <contour>
      <point x="144" y="700" type="curve"/>
      <point x="239" y="700"/>
      <point x="333" y="700"/>
      <point x="428" y="700" type="curve"/>
      <point x="428" y="722"/>
      <point x="428" y="700"/>
      <point x="428" y="722" type="curve"/>
      <point x="333" y="722"/>
      <point x="239" y="722"/>
      <point x="144" y="722" type="curve"/>
      <point x="144" y="700"/>
      <point x="144" y="722"/>
    </contour>
    <contour>
      <point x="164" y="0" type="curve"/>
      <point x="164" y="722" type="line"/>
      <point x="140" y="722"/>
      <point x="164" y="722"/>
      <point x="140" y="722" type="curve"/>
      <point x="140" y="481"/>
      <point x="140" y="241"/>
      <point x="140" y="0" type="curve"/>
      <point x="164" y="0"/>
      <point x="140" y="0"/>
    </contour>
    <contour>
      <point x="144" y="0" type="curve"/>
      <point x="247" y="0"/>
      <point x="349" y="0"/>
      <point x="452" y="0" type="curve"/>
      <point x="452" y="22"/>
      <point x="452" y="0"/>
      <point x="452" y="22" type="curve"/>
      <point x="349" y="22"/>
      <point x="247" y="22"/>
      <point x="144" y="22" type="curve"/>
      <point x="144" y="0"/>
      <point x="144" y="22"/>
    </contour>
    <contour>
      <point x="315" y="991" type="line"/>
      <point x="242" y="825" type="line"/>
      <point x="273" y="825" type="line"/>
      <point x="339" y="991" type="line"/>
    </contour>
    <contour>
      <point x="166" y="991" type="line"/>
      <point x="232" y="825" type="line"/>
      <point x="263" y="825" type="line"/>
      <point x="190" y="991" type="line"/>
    </contour>
  </outline>
</glyph>
<glyph name="Gcommaaccent" format="1">
  <advance width="576"/>
  <unicode hex="0122"/>
  <outline>
    <contour>
      <point x="472" y="642" type="curve"/>
      <point x="472" y="522"/>
      <point x="472" y="652"/>
      <point x="472" y="532" type="curve"/>
      <point x="494" y="532"/>
      <point x="472" y="532"/>
      <point x="494" y="532" type="curve"/>
      <point x="494" y="652"/>
      <point x="494" y="522"/>
      <point x="494" y="642" type="curve"/>
      <point x="472" y="642"/>
      <point x="494" y="642"/>
    </contour>
    <contour>
      <point x="498" y="319" type="curve"/>
      <point x="447" y="319"/>
      <point x="395" y="319"/>
      <point x="344" y="319" type="curve"/>
      <point x="344" y="297"/>
      <point x="344" y="319"/>
      <point x="344" y="297" type="curve"/>
      <point x="395" y="297"/>
      <point x="447" y="297"/>
      <point x="498" y="297" type="curve"/>
      <point x="498" y="319"/>
      <point x="498" y="297"/>
    </contour>
    <contour>
      <point x="506" y="77" type="curve"/>
      <point x="506" y="158"/>
      <point x="506" y="238"/>
      <point x="506" y="319" type="curve"/>
      <point x="484" y="319"/>
      <point x="506" y="319"/>
      <point x="484" y="319" type="curve"/>
      <point x="484" y="238"/>
      <point x="484" y="158"/>
      <point x="484" y="77" type="curve"/>
      <point x="506" y="77"/>
      <point x="484" y="77"/>
    </contour>
    <contour>
      <point x="494" y="642" type="curve"/>
      <point x="436" y="696"/>
      <point x="377" y="727"/>
      <point x="298" y="727" type="curve"/>
      <point x="119" y="727"/>
      <point x="64" y="570"/>
      <point x="64" y="365" type="curve"/>
      <point x="64" y="154"/>
      <point x="122" y="-5"/>
      <point x="306" y="-5" type="curve"/>
      <point x="390" y="-5"/>
      <point x="441" y="24"/>
      <point x="506" y="77" type="curve"/>
      <point x="491" y="97"/>
      <point x="506" y="77"/>
      <point x="491" y="97" type="curve"/>
      <point x="447" y="55"/>
      <point x="383" y="19"/>
      <point x="306" y="19" type="curve"/>
      <point x="135" y="19"/>
      <point x="89" y="171"/>
      <point x="89" y="367" type="curve"/>
      <point x="89" y="554"/>
      <point x="135" y="703"/>
      <point x="298" y="703" type="curve"/>
      <point x="372" y="703"/>
      <point x="427" y="674"/>
      <point x="482" y="624" type="curve"/>
      <point x="494" y="642"/>
      <point x="482" y="624"/>
    </contour>
    <contour>
      <point x="271" y="-211" type="line"/>
      <point x="295" y="-187"/>
      <point x="314" y="-160"/>
      <point x="314" y="-113" type="curve"/>
      <point x="314" y="-93"/>
      <point x="311" y="-76"/>
      <point x="293" y="-76" type="curve"/>
      <point x="280" y="-76"/>
      <point x="273" y="-82"/>
      <point x="273" y="-94" type="curve"/>
      <point x="273" y="-104"/>
      <point x="277" y="-110"/>
      <point x="288" y="-115" type="curve"/>
      <point x="288" y="-136"/>
      <point x="278" y="-171"/>
      <point x="255" y="-194" type="curve"/>
    </contour>
  </outline>
</glyph>
<glyph name="lcaron" format="1">
  <advance width="272"/>
  <unicode hex="013E"/>
  <outline>
    <contour>
      <point x="130" y="22" type="curve"/>
      <point x="8" y="22"/>
      <point x="130" y="22"/>
      <point x="8" y="22" type="curve"/>
      <point x="8" y="0"/>
      <point x="8" y="22"/>
      <point x="8" y="0" type="curve"/>
      <point x="49" y="0"/>
      <point x="89" y="0"/>
      <point x="130" y="0" type="curve"/>
      <point x="130" y="22"/>
      <point x="130" y="0"/>
    </contour>
    <contour>
      <point x="131" y="800" type="curve"/>
      <point x="90" y="800"/>
      <point x="50" y="800"/>
      <point x="9" y="800" type="curve"/>
      <point x="9" y="778"/>
      <point x="9" y="800"/>
      <point x="9" y="778" type="curve"/>
      <point x="131" y="778"/>
      <point x="9" y="778"/>
      <point x="131" y="778" type="curve"/>
      <point x="131" y="800"/>
      <point x="131" y="778"/>
    </contour>
    <contour>
      <point x="130" y="0" type="curve"/>
      <point x="171" y="0"/>
      <point x="211" y="0"/>
      <point x="252" y="0" type="curve"/>
      <point x="252" y="22"/>
      <point x="252" y="0"/>
      <point x="252" y="22" type="curve"/>
      <point x="130" y="22"/>
      <point x="252" y="22"/>
      <point x="130" y="22" type="curve"/>
      <point x="130" y="0"/>
      <point x="130" y="22"/>
    </contour>
    <contour>
      <point x="141" y="0" type="curve"/>
      <point x="141" y="267"/>
      <point x="141" y="533"/>
      <point x="141" y="800" type="curve"/>
      <point x="117" y="800"/>
      <point x="141" y="800"/>
      <point x="117" y="800" type="curve"/>
      <point x="117" y="533"/>
      <point x="117" y="267"/>
      <point x="117" y="0" type="curve"/>
      <point x="141" y="0"/>
      <point x="117" y="0"/>
    </contour>
    <contour>
      <point x="265" y="676" type="line"/>
      <point x="289" y="700"/>
      <point x="308" y="727"/>
      <point x="308" y="774" type="curve"/>
      <point x="308" y="794"/>
      <point x="305" y="811"/>
      <point x="287" y="811" type="curve"/>
      <point x="274" y="811"/>
      <point x="267" y="805"/>
      <point x="267" y="793" type="curve"/>
      <point x="267" y="783"/>
      <point x="271" y="777"/>
      <point x="282" y="772" type="curve"/>
      <point x="282" y="751"/>
      <point x="272" y="716"/>
      <point x="249" y="693" type="curve"/>
    </contour>
  </outline>
</glyph>
<glyph name="OE" format="1">
  <advance width="744"/>
  <unicode hex="0152"/>
  <outline>
    <contour>
      <point x="404" y="687" type="curve"/>
      <point x="371" y="717"/>
      <point x="340" y="724"/>
      <point x="295" y="724" type="curve"/>
      <point x="112" y="724"/>
      <point x="66" y="554"/>
      <point x="66" y="344" type="curve"/>
      <point x="66" y="152"/>
      <point x="112" y="-3"/>
      <point x="280" y="-3" type="curve"/>
      <point x="330" y="-3"/>
      <point x="366" y="4"/>
      <point x="405" y="36" type="curve"/>
      <point x="399" y="42"/>
      <point x="394" y="46"/>
      <point x="388" y="52" type="curve"/>
      <point x="355" y="25"/>
      <point x="324" y="23"/>
      <point x="281" y="23" type="curve"/>
      <point x="133" y="23"/>
      <point x="90" y="168"/>
      <point x="90" y="345" type="curve"/>
      <point x="90" y="540"/>
      <point x="133" y="700"/>
      <point x="294" y="700" type="curve"/>
      <point x="334" y="700"/>
      <point x="362" y="697"/>
      <point x="391" y="670" type="curve"/>
      <point x="396" y="676"/>
      <point x="399" y="681"/>
    </contour>
    <contour>
      <point x="695" y="11" type="curve"/>
      <point x="695" y="131"/>
      <point x="695" y="1"/>
      <point x="695" y="121" type="curve"/>
      <point x="673" y="121"/>
      <point x="695" y="121"/>
      <point x="673" y="121" type="curve"/>
      <point x="673" y="1"/>
      <point x="673" y="131"/>
      <point x="673" y="11" type="curve"/>
      <point x="695" y="11"/>
      <point x="673" y="11"/>
    </contour>
    <contour>
      <point x="649" y="711" type="curve"/>
      <point x="649" y="591"/>
      <point x="649" y="721"/>
      <point x="649" y="601" type="curve"/>
      <point x="671" y="601"/>
      <point x="649" y="601"/>
      <point x="671" y="601" type="curve"/>
      <point x="671" y="721"/>
      <point x="671" y="591"/>
      <point x="671" y="711" type="curve"/>
      <point x="649" y="711"/>
      <point x="671" y="711"/>
    </contour>
    <contour>
      <point x="395" y="22" type="curve"/>
      <point x="263" y="22"/>
      <point x="415" y="22"/>
      <point x="283" y="22" type="curve"/>
      <point x="283" y="0"/>
      <point x="283" y="22"/>
      <point x="283" y="0" type="curve"/>
      <point x="327" y="0"/>
      <point x="351" y="0"/>
      <point x="395" y="0" type="curve"/>
      <point x="395" y="22"/>
      <point x="395" y="0"/>
    </contour>
    <contour>
      <point x="395" y="722" type="curve"/>
      <point x="351" y="722"/>
      <point x="327" y="722"/>
      <point x="283" y="722" type="curve"/>
      <point x="283" y="700"/>
      <point x="283" y="722"/>
      <point x="283" y="700" type="curve"/>
      <point x="415" y="700"/>
      <point x="263" y="700"/>
      <point x="395" y="700" type="curve"/>
      <point x="395" y="722"/>
      <point x="395" y="700"/>
    </contour>
    <contour>
      <point x="397" y="363" type="curve"/>
      <point x="474" y="363"/>
      <point x="550" y="363"/>
      <point x="627" y="363" type="curve"/>
      <point x="627" y="385"/>
      <point x="627" y="363"/>
      <point x="627" y="385" type="curve"/>
      <point x="550" y="385"/>
      <point x="474" y="385"/>
      <point x="397" y="385" type="curve"/>
      <point x="397" y="363"/>
      <point x="397" y="385"/>
    </contour>
    <contour>
      <point x="387" y="700" type="curve"/>
      <point x="482" y="700"/>
      <point x="576" y="700"/>
      <point x="671" y="700" type="curve"/>
      <point x="671" y="722"/>
      <point x="671" y="700"/>
      <point x="671" y="722" type="curve"/>
      <point x="576" y="722"/>
      <point x="482" y="722"/>
      <point x="387" y="722" type="curve"/>
      <point x="387" y="700"/>
      <point x="387" y="722"/>
    </contour>
    <contour>
      <point x="407" y="0" type="curve"/>
      <point x="407" y="722" type="line"/>
      <point x="383" y="722"/>
      <point x="407" y="722"/>
      <point x="383" y="722" type="curve"/>
      <point x="383" y="481"/>
      <point x="383" y="241"/>
      <point x="383" y="0" type="curve"/>
      <point x="407" y="0"/>
      <point x="383" y="0"/>
    </contour>
    <contour>
      <point x="387" y="0" type="curve"/>
      <point x="490" y="0"/>
      <point x="592" y="0"/>
      <point x="695" y="0" type="curve"/>
      <point x="695" y="22"/>
      <point x="695" y="0"/>
      <point x="695" y="22" type="curve"/>
      <point x="592" y="22"/>
      <point x="490" y="22"/>
      <point x="387" y="22" type="curve"/>
      <point x="387" y="0"/>
      <point x="387" y="22"/>
    </contour>
  </outline>
</glyph>
<glyph name="rcaron" format="1">
  <advance width="348"/>
  <unicode hex="0159"/>
  <outline>
    <contour>
      <point x="143" y="0" type="curve"/>
      <point x="182" y="0"/>
      <point x="211" y="0"/>
      <point x="248" y="0" type="curve"/>
      <point x="248" y="22"/>
      <point x="248" y="0"/>
      <point x="248" y="22" type="curve"/>
      <point x="134" y="22"/>
      <point x="257" y="22"/>
      <point x="143" y="22" type="curve"/>
      <point x="143" y="0"/>
      <point x="143" y="22"/>
    </contour>
    <contour>
      <point x="143" y="22" type="curve"/>
      <point x="22" y="22"/>
      <point x="152" y="22"/>
      <point x="31" y="22" type="curve"/>
      <point x="31" y="0"/>
      <point x="31" y="22"/>
      <point x="31" y="0" type="curve"/>
      <point x="72" y="0"/>
      <point x="103" y="0"/>
      <point x="143" y="0" type="curve"/>
      <point x="143" y="22"/>
      <point x="143" y="0"/>
    </contour>
    <contour>
      <point x="143" y="533" type="curve"/>
      <point x="103" y="533"/>
      <point x="72" y="533"/>
      <point x="31" y="533" type="curve"/>
      <point x="31" y="511"/>
      <point x="31" y="533"/>
      <point x="31" y="511" type="curve"/>
      <point x="152" y="511"/>
      <point x="22" y="511"/>
      <point x="143" y="511" type="curve"/>
      <point x="143" y="533"/>
      <point x="143" y="511"/>
    </contour>
    <contour>
      <point x="155" y="0" type="curve"/>
      <point x="155" y="178"/>
      <point x="155" y="355"/>
      <point x="155" y="533" type="curve"/>
      <point x="131" y="533"/>
      <point x="155" y="533"/>
      <point x="131" y="533" type="curve"/>
      <point x="131" y="355"/>
      <point x="131" y="178"/>
      <point x="131" y="0" type="curve"/>
      <point x="155" y="0"/>
      <point x="131" y="0"/>
    </contour>
    <contour>
      <point x="149" y="371" type="curve"/>
      <point x="166" y="456"/>
      <point x="239" y="516"/>
      <point x="318" y="516" type="curve"/>
      <point x="318" y="543"/>
      <point x="318" y="511"/>
      <point x="318" y="538" type="curve"/>
      <point x="232" y="538"/>
      <point x="158" y="483"/>
      <point x="137" y="394" type="curve"/>
      <point x="150" y="381"/>
      <point x="142" y="381"/>
    </contour>
    <contour>
      <point x="208" y="837" type="line"/>
      <point x="135" y="671" type="line"/>
      <point x="166" y="671" type="line"/>
      <point x="232" y="837" type="line"/>
    </contour>
    <contour>
      <point x="59" y="837" type="line"/>
      <point x="125" y="671" type="line"/>
      <point x="156" y="671" type="line"/>
      <point x="83" y="837" type="line"/>
    </contour>
  </outline>
</glyph>
<glyph name="scaron" format="1">
  <advance width="370"/>
  <unicode hex="0161"/>
  <outline>
    <contour>
      <point x="49" y="49" type="curve"/>
      <point x="91" y="17"/>
      <point x="136" y="-5"/>
      <point x="187" y="-5" type="curve"/>
      <point x="268" y="-5"/>
      <point x="307" y="52"/>
      <point x="307" y="131" type="curve"/>
      <point x="306" y="215"/>
      <point x="259" y="256"/>
      <point x="184" y="289" type="curve" smooth="yes"/>
      <point x="125" y="316"/>
      <point x="95" y="354"/>
      <point x="95" y="421" type="curve"/>
      <point x="95" y="474"/>
      <point x="122" y="516"/>
      <point x="175" y="516" type="curve"/>
      <point x="214" y="516"/>
      <point x="243" y="500"/>
      <point x="272" y="473" type="curve"/>
      <point x="276" y="480"/>
      <point x="279" y="485"/>
      <point x="283" y="492" type="curve"/>
      <point x="251" y="521"/>
      <point x="219" y="538"/>
      <point x="176" y="538" type="curve"/>
      <point x="110" y="538"/>
      <point x="73" y="487"/>
      <point x="73" y="421" type="curve"/>
      <point x="73" y="345"/>
      <point x="108" y="299"/>
      <point x="177" y="268" type="curve" smooth="yes"/>
      <point x="241" y="239"/>
      <point x="284" y="205"/>
      <point x="283" y="131" type="curve"/>
      <point x="283" y="67"/>
      <point x="251" y="17"/>
      <point x="191" y="17" type="curve"/>
      <point x="142" y="17"/>
      <point x="101" y="38"/>
      <point x="61" y="68" type="curve"/>
      <point x="49" y="49"/>
      <point x="61" y="68"/>
    </contour>
    <contour>
      <point x="261" y="492" type="curve"/>
      <point x="261" y="372"/>
      <point x="261" y="502"/>
      <point x="261" y="382" type="curve"/>
      <point x="283" y="382"/>
      <point x="261" y="382"/>
      <point x="283" y="382" type="curve"/>
      <point x="283" y="502"/>
      <point x="283" y="372"/>
      <point x="283" y="492" type="curve"/>
      <point x="275" y="492"/>
      <point x="269" y="492"/>
    </contour>
    <contour>
      <point x="71" y="49" type="curve"/>
      <point x="71" y="169"/>
      <point x="71" y="39"/>
      <point x="71" y="159" type="curve"/>
      <point x="49" y="159"/>
      <point x="71" y="159"/>
      <point x="49" y="159" type="curve"/>
      <point x="49" y="39"/>
      <point x="49" y="169"/>
      <point x="49" y="49" type="curve"/>
      <point x="71" y="49"/>
      <point x="49" y="49"/>
    </contour>
    <contour>
      <point x="245" y="837" type="line"/>
      <point x="172" y="671" type="line"/>
      <point x="203" y="671" type="line"/>
      <point x="269" y="837" type="line"/>
    </contour>
    <contour>
      <point x="96" y="837" type="line"/>
      <point x="162" y="671" type="line"/>
      <point x="193" y="671" type="line"/>
      <point x="120" y="837" type="line"/>
    </contour>
  </outline>
</glyph>
<glyph name="Tcommaaccent" format="1">
  <advance width="530"/>
  <unicode hex="0162"/>
  <outline>
    <contour>
      <point x="48" y="710" type="curve"/>
      <point x="48" y="590"/>
      <point x="48" y="721"/>
      <point x="48" y="601" type="curve"/>
      <point x="70" y="601"/>
      <point x="48" y="601"/>
      <point x="70" y="601" type="curve"/>
      <point x="70" y="721"/>
      <point x="70" y="590"/>
      <point x="70" y="710" type="curve"/>
      <point x="48" y="710"/>
      <point x="70" y="710"/>
    </contour>
    <contour>
      <point x="460" y="710" type="curve"/>
      <point x="460" y="590"/>
      <point x="460" y="721"/>
      <point x="460" y="601" type="curve"/>
      <point x="482" y="601"/>
      <point x="460" y="601"/>
      <point x="482" y="601" type="curve"/>
      <point x="482" y="721"/>
      <point x="482" y="590"/>
      <point x="482" y="710" type="curve"/>
      <point x="460" y="710"/>
      <point x="482" y="710"/>
    </contour>
    <contour>
      <point x="265" y="0" type="curve"/>
      <point x="306" y="0"/>
      <point x="337" y="0"/>
      <point x="377" y="0" type="curve"/>
      <point x="377" y="22"/>
      <point x="377" y="0"/>
      <point x="377" y="22" type="curve"/>
      <point x="256" y="22"/>
      <point x="386" y="22"/>
      <point x="265" y="22" type="curve"/>
      <point x="265" y="0"/>
      <point x="265" y="22"/>
    </contour>
    <contour>
      <point x="265" y="22" type="curve"/>
      <point x="143" y="22"/>
      <point x="274" y="22"/>
      <point x="152" y="22" type="curve"/>
      <point x="152" y="0"/>
      <point x="152" y="22"/>
      <point x="152" y="0" type="curve"/>
      <point x="193" y="0"/>
      <point x="224" y="0"/>
      <point x="265" y="0" type="curve"/>
      <point x="265" y="22"/>
      <point x="265" y="0"/>
    </contour>
    <contour>
      <point x="277" y="0" type="curve"/>
      <point x="277" y="237"/>
      <point x="277" y="473"/>
      <point x="277" y="710" type="curve"/>
      <point x="253" y="710"/>
      <point x="277" y="710"/>
      <point x="253" y="710" type="curve"/>
      <point x="253" y="473"/>
      <point x="253" y="237"/>
      <point x="253" y="0" type="curve"/>
      <point x="277" y="0"/>
      <point x="253" y="0"/>
    </contour>
    <contour>
      <point x="48" y="698" type="curve"/>
      <point x="193" y="698"/>
      <point x="338" y="698"/>
      <point x="482" y="698" type="curve"/>
      <point x="482" y="722"/>
      <point x="482" y="698"/>
      <point x="482" y="722" type="curve"/>
      <point x="338" y="722"/>
      <point x="193" y="722"/>
      <point x="48" y="722" type="curve"/>
      <point x="48" y="698"/>
      <point x="48" y="722"/>
    </contour>
    <contour>
      <point x="230" y="-211" type="line"/>
      <point x="254" y="-187"/>
      <point x="273" y="-160"/>
      <point x="273" y="-113" type="curve"/>
      <point x="273" y="-93"/>
      <point x="270" y="-76"/>
      <point x="252" y="-76" type="curve"/>
      <point x="239" y="-76"/>
      <point x="232" y="-82"/>
      <point x="232" y="-94" type="curve"/>
      <point x="232" y="-104"/>
      <point x="236" y="-110"/>
      <point x="247" y="-115" type="curve"/>
      <point x="247" y="-136"/>
      <point x="237" y="-171"/>
      <point x="214" y="-194" type="curve"/>
    </contour>
  </outline>
</glyph>
<glyph name="tcommaaccent" format="1">
  <advance width="314"/>
  <unicode hex="0163"/>
  <outline>
    <contour>
      <point x="20" y="511" type="curve"/>
      <point x="294" y="511" type="line"/>
      <point x="294" y="533"/>
      <point x="294" y="511"/>
      <point x="294" y="533" type="curve"/>
      <point x="20" y="533" type="line"/>
      <point x="20" y="511"/>
      <point x="20" y="533"/>
    </contour>
    <contour>
      <point x="275" y="46" type="curve"/>
      <point x="254" y="30"/>
      <point x="236" y="19"/>
      <point x="209" y="19" type="curve"/>
      <point x="152" y="19"/>
      <point x="140" y="72"/>
      <point x="140" y="145" type="curve"/>
      <point x="140" y="681" type="line"/>
      <point x="116" y="657" type="line"/>
      <point x="116" y="143" type="line"/>
      <point x="116" y="56"/>
      <point x="133" y="-5"/>
      <point x="207" y="-5" type="curve"/>
      <point x="239" y="-5"/>
      <point x="261" y="5"/>
      <point x="287" y="24" type="curve"/>
      <point x="275" y="46"/>
      <point x="287" y="24"/>
    </contour>
    <contour>
      <point x="169" y="-211" type="line"/>
      <point x="193" y="-187"/>
      <point x="212" y="-160"/>
      <point x="212" y="-113" type="curve"/>
      <point x="212" y="-93"/>
      <point x="209" y="-76"/>
      <point x="191" y="-76" type="curve"/>
      <point x="178" y="-76"/>
      <point x="171" y="-82"/>
      <point x="171" y="-94" type="curve"/>
      <point x="171" y="-104"/>
      <point x="175" y="-110"/>
      <point x="186" y="-115" type="curve"/>
      <point x="186" y="-136"/>
      <point x="176" y="-171"/>
      <point x="153" y="-194" type="curve"/>
    </contour>
  </outline>
</glyph>
<glyph name="Uogonek" format="1">
  <advance width="625"/>
  <unicode hex="0172"/>
  <outline>
    <contour>
      <point x="488" y="700" type="curve"/>
      <point x="609" y="700"/>
      <point x="479" y="700"/>
      <point x="600" y="700" type="curve"/>
      <point x="600" y="722"/>
      <point x="600" y="700"/>
      <point x="600" y="722" type="curve"/>
      <point x="560" y="722"/>
      <point x="528" y="722"/>
      <point x="488" y="722" type="curve"/>
      <point x="488" y="700"/>
      <point x="488" y="722"/>
    </contour>
    <contour>
      <point x="488" y="722" type="curve"/>
      <point x="448" y="722"/>
      <point x="416" y="722"/>
      <point x="376" y="722" type="curve"/>
      <point x="376" y="700"/>
      <point x="376" y="722"/>
      <point x="376" y="700" type="curve"/>
      <point x="497" y="700"/>
      <point x="367" y="700"/>
      <point x="488" y="700" type="curve"/>
      <point x="488" y="722"/>
      <point x="488" y="700"/>
    </contour>
    <contour>
      <point x="138" y="722" type="curve"/>
      <point x="98" y="722"/>
      <point x="66" y="722"/>
      <point x="26" y="722" type="curve"/>
      <point x="26" y="700"/>
      <point x="26" y="722"/>
      <point x="26" y="700" type="curve"/>
      <point x="147" y="700"/>
      <point x="17" y="700"/>
      <point x="138" y="700" type="curve"/>
      <point x="138" y="722"/>
      <point x="138" y="700"/>
    </contour>
    <contour>
      <point x="138" y="700" type="curve"/>
      <point x="259" y="700"/>
      <point x="129" y="700"/>
      <point x="250" y="700" type="curve"/>
      <point x="250" y="722"/>
      <point x="250" y="700"/>
      <point x="250" y="722" type="curve"/>
      <point x="210" y="722"/>
      <point x="178" y="722"/>
      <point x="138" y="722" type="curve"/>
      <point x="138" y="700"/>
      <point x="138" y="722"/>
    </contour>
    <contour>
      <point x="124" y="721" type="curve"/>
      <point x="124" y="571"/>
      <point x="124" y="421"/>
      <point x="124" y="271" type="curve"/>
      <point x="124" y="106"/>
      <point x="165" y="-5"/>
      <point x="313" y="-5" type="curve"/>
      <point x="457" y="-5"/>
      <point x="500" y="103"/>
      <point x="500" y="263" type="curve"/>
      <point x="500" y="416"/>
      <point x="500" y="569"/>
      <point x="500" y="721" type="curve"/>
      <point x="478" y="721"/>
      <point x="499" y="721"/>
      <point x="477" y="721" type="curve"/>
      <point x="477" y="567"/>
      <point x="477" y="413"/>
      <point x="477" y="259" type="curve"/>
      <point x="477" y="117"/>
      <point x="438" y="19"/>
      <point x="315" y="19" type="curve"/>
      <point x="181" y="19"/>
      <point x="147" y="124"/>
      <point x="147" y="275" type="curve"/>
      <point x="147" y="424"/>
      <point x="147" y="573"/>
      <point x="147" y="721" type="curve"/>
      <point x="125" y="721"/>
      <point x="146" y="721"/>
    </contour>
    <contour>
      <point x="324" y="13" type="curve"/>
      <point x="276" y="-12"/>
      <point x="245" y="-48"/>
      <point x="245" y="-101" type="curve"/>
      <point x="245" y="-153"/>
      <point x="268" y="-196"/>
      <point x="315" y="-196" type="curve"/>
      <point x="340" y="-196"/>
      <point x="357" y="-181"/>
      <point x="375" y="-164" type="curve"/>
      <point x="370" y="-159"/>
      <point x="366" y="-156"/>
      <point x="361" y="-151" type="curve"/>
      <point x="347" y="-164"/>
      <point x="335" y="-174"/>
      <point x="317" y="-174" type="curve"/>
      <point x="282" y="-174"/>
      <point x="268" y="-140"/>
      <point x="268" y="-101" type="curve"/>
      <point x="268" y="-56"/>
      <point x="293" y="-25"/>
      <point x="333" y="-2" type="curve"/>
      <point x="330" y="3"/>
      <point x="327" y="8"/>
    </contour>
  </outline>
</glyph>
<glyph name="circumflex" format="1">
  <advance width="403"/>
  <unicode hex="02C6"/>
  <outline>
    <contour>
      <point x="91" y="590" type="move" name="_top"/>
    </contour>
    <contour>
      <point x="28" y="590" type="line"/>
      <point x="101" y="756" type="line"/>
      <point x="70" y="756" type="line"/>
      <point x="4" y="590" type="line"/>
    </contour>
    <contour>
      <point x="177" y="590" type="line"/>
      <point x="111" y="756" type="line"/>
      <point x="80" y="756" type="line"/>
      <point x="153" y="590" type="line"/>
    </contour>
  </outline>
</glyph>
<glyph name="dvAnusvara" format="1">
  <advance width="0"/>
  <unicode hex="0902"/>
  <outline>
    <contour>
      <point x="-75" y="740" type="move" name="_abvm.e"/>
    </contour>
    <contour>
      <point x="-78" y="891" type="curve"/>
      <point x="-78" y="900"/>
      <point x="-84" y="906"/>
      <point x="-93" y="906" type="curve"/>
      <point x="-103" y="906"/>
      <point x="-109" y="899"/>
      <point x="-109" y="891" type="curve"/>
      <point x="-78" y="891"/>
      <point x="-109" y="891"/>
      <point x="-78" y="891" type="curve"/>
      <point x="-78" y="881"/>
      <point x="-84" y="876"/>
      <point x="-93" y="876" type="curve"/>
      <point x="-103" y="876"/>
      <point x="-109" y="882"/>
      <point x="-109" y="891" type="curve"/>
      <point x="-78" y="891"/>
      <point x="-109" y="891"/>
    </contour>
  </outline>
</glyph>
<glyph name="dvUU" format="1">
  <advance width="653"/>
  <unicode hex="090A"/>
  <outline>
    <contour>
      <point x="488" y="112" type="curve"/>
      <point x="489" y="90" type="line"/>
      <point x="573" y="90"/>
      <point x="627" y="151"/>
      <point x="627" y="237" type="curve"/>
      <point x="627" y="317"/>
      <point x="566" y="366"/>
      <point x="482" y="366" type="curve"/>
      <point x="385" y="366"/>
      <point x="336" y="285"/>
      <point x="325" y="181" type="curve"/>
      <point x="345" y="175" type="line"/>
      <point x="356" y="269"/>
      <point x="395" y="345"/>
      <point x="482" y="345" type="curve"/>
      <point x="551" y="345"/>
      <point x="602" y="304"/>
      <point x="602" y="237" type="curve"/>
      <point x="602" y="164"/>
      <point x="558" y="112"/>
    </contour>
    <component base="dvU"/>
    <component base="dvTopbar" xScale="0.66903759772" xOffset="220"/>
  </outline>
</glyph>
<glyph name="dvLA" format="1">
  <advance width="645"/>
  <unicode hex="0932"/>
  <outline>
    <contour>
      <point x="515" y="28" type="move" name="blwm.virama"/>
    </contour>
    <contour>
      <point x="444" y="720" type="move" name="abvm.e"/>
    </contour>
    <contour>
      <point x="504" y="-45" type="move" name="blwm.u"/>
    </contour>
    <component base="dvLA_base" xOffset="60" yOffset="-17"/>
    <component base="dvTopbar" xOffset="-12"/>
    <component base="dvStem_short" xOffset="141"/>
  </outline>
</glyph>
<glyph name="dvLLA" format="1">
  <advance width="645"/>
  <unicode hex="0933"/>
  <outline>
    <contour>
      <point x="489" y="-11" type="move" name="blwm.virama"/>
    </contour>
    <contour>
      <point x="460" y="716" type="move" name="abvm.e"/>
    </contour>
    <contour>
      <point x="489" y="-82" type="move" name="blwm.u"/>
    </contour>
    <component base="dvLL" xOffset="-12"/>
    <component base="dvStem_short" xOffset="153" yOffset="8"/>
  </outline>
</glyph>
<glyph name="dvmvRR" format="1">
  <advance width="0"/>
  <unicode hex="0944"/>
  <outline>
    <contour>
      <point x="-78" y="14" type="move" name="_blwm.u"/>
    </contour>
    <contour>
      <point x="-85" y="-180" type="line"/>
      <point x="-146" y="-180"/>
      <point x="-188" y="-141"/>
      <point x="-188" y="-81" type="curve"/>
      <point x="-188" y="-25"/>
      <point x="-147" y="11"/>
      <point x="-89" y="11" type="curve"/>
      <point x="-90" y="33" type="line"/>
      <point x="-161" y="33"/>
      <point x="-211" y="-12"/>
      <point x="-211" y="-81" type="curve"/>
      <point x="-211" y="-154"/>
      <point x="-159" y="-201"/>
      <point x="-85" y="-201" type="curve"/>
    </contour>
    <contour>
      <point x="-85" y="-187" type="line"/>
      <point x="-157" y="-187"/>
      <point x="-209" y="-231"/>
      <point x="-209" y="-301" type="curve"/>
      <point x="-209" y="-372"/>
      <point x="-160" y="-420"/>
      <point x="-88" y="-420" type="curve"/>
      <point x="-60" y="-420"/>
      <point x="-39" y="-409"/>
      <point x="-18" y="-390" type="curve"/>
      <point x="-30" y="-375" type="line"/>
      <point x="-47" y="-391"/>
      <point x="-65" y="-399"/>
      <point x="-88" y="-399" type="curve"/>
      <point x="-146" y="-399"/>
      <point x="-186" y="-359"/>
      <point x="-186" y="-301" type="curve"/>
      <point x="-186" y="-244"/>
      <point x="-144" y="-208"/>
      <point x="-85" y="-208" type="curve"/>
    </contour>
  </outline>
</glyph>
<glyph name="dvmEcandra" format="1">
  <advance width="0"/>
  <unicode hex="0945"/>
  <outline>
    <contour>
      <point x="-83" y="741" type="move" name="_abvm.e"/>
    </contour>
    <contour>
      <point x="-20" y="966" type="curve"/>
      <point x="-20" y="908"/>
      <point x="-43" y="864"/>
      <point x="-97" y="864" type="curve"/>
      <point x="-149" y="864"/>
      <point x="-170" y="909"/>
      <point x="-170" y="967" type="curve"/>
      <point x="-194" y="967"/>
      <point x="-170" y="967"/>
      <point x="-194" y="967" type="curve"/>
      <point x="-194" y="895"/>
      <point x="-165" y="843"/>
      <point x="-99" y="843" type="curve"/>
      <point x="-30" y="843"/>
      <point x="3" y="893"/>
      <point x="3" y="966" type="curve"/>
      <point x="-20" y="966"/>
      <point x="3" y="966"/>
    </contour>
  </outline>
</glyph>
<glyph name="dvFour" format="1">
  <advance width="458"/>
  <unicode hex="096A"/>
  <outline>
    <contour>
      <point x="271" y="22" type="line"/>
      <point x="158" y="22" type="line"/>
      <point x="158" y="0" type="line"/>
      <point x="271" y="0" type="line"/>
    </contour>
    <contour>
      <point x="271" y="0" type="line"/>
      <point x="374" y="0" type="line"/>
      <point x="374" y="22" type="line"/>
      <point x="271" y="22" type="line"/>
    </contour>
    <contour>
      <point x="52" y="277" type="line"/>
      <point x="283" y="722" type="line"/>
      <point x="259" y="722" type="line"/>
      <point x="32" y="287" type="line"/>
    </contour>
    <contour>
      <point x="406" y="287" type="line"/>
      <point x="32" y="287" type="line"/>
      <point x="32" y="265" type="line"/>
      <point x="406" y="265" type="line"/>
    </contour>
    <contour>
      <point x="283" y="0" type="line"/>
      <point x="283" y="722" type="line"/>
      <point x="259" y="722" type="line"/>
      <point x="259" y="0" type="line"/>
    </contour>
  </outline>
</glyph>
<glyph name="dvFive" format="1">
  <advance width="400"/>
  <unicode hex="096B"/>
  <outline>
    <contour>
      <point x="91" y="722" type="curve"/>
      <point x="91" y="619"/>
      <point x="91" y="516"/>
      <point x="91" y="406" type="curve"/>
      <point x="114" y="396"/>
      <point x="91" y="406"/>
      <point x="114" y="396" type="curve"/>
      <point x="114" y="498"/>
      <point x="114" y="599"/>
      <point x="114" y="700" type="curve"/>
      <point x="91" y="722"/>
      <point x="114" y="700"/>
    </contour>
    <contour>
      <point x="114" y="396" type="curve"/>
      <point x="129" y="408"/>
      <point x="163" y="423"/>
      <point x="189" y="423" type="curve"/>
      <point x="284" y="423"/>
      <point x="316" y="330"/>
      <point x="316" y="224" type="curve"/>
      <point x="316" y="116"/>
      <point x="277" y="18"/>
      <point x="182" y="18" type="curve"/>
      <point x="137" y="18"/>
      <point x="110" y="34"/>
      <point x="70" y="62" type="curve"/>
      <point x="56" y="44"/>
      <point x="70" y="62"/>
      <point x="56" y="44" type="curve"/>
      <point x="94" y="13"/>
      <point x="132" y="-5"/>
      <point x="181" y="-5" type="curve"/>
      <point x="292" y="-5"/>
      <point x="341" y="101"/>
      <point x="341" y="224" type="curve"/>
      <point x="341" y="343"/>
      <point x="299" y="446"/>
      <point x="191" y="446" type="curve"/>
      <point x="154" y="446"/>
      <point x="112" y="430"/>
      <point x="91" y="406" type="curve"/>
      <point x="114" y="396"/>
      <point x="91" y="406"/>
    </contour>
    <contour>
      <point x="323" y="722" type="curve"/>
      <point x="242" y="722"/>
      <point x="172" y="722"/>
      <point x="91" y="722" type="curve"/>
      <point x="114" y="700"/>
      <point x="91" y="722"/>
      <point x="114" y="700" type="curve"/>
      <point x="187" y="700"/>
      <point x="250" y="700"/>
      <point x="323" y="700" type="curve"/>
      <point x="323" y="722"/>
      <point x="323" y="700"/>
    </contour>
  </outline>
</glyph>
<glyph name="dvAbbreviationsign" format="1">
  <advance width="340"/>
  <unicode hex="0970"/>
  <outline>
    <contour>
      <point x="79" y="255" type="curve"/>
      <point x="79" y="356"/>
      <point x="93" y="441"/>
      <point x="180" y="441" type="curve"/>
      <point x="267" y="442"/>
      <point x="281" y="357"/>
      <point x="281" y="256" type="curve"/>
      <point x="281" y="155"/>
      <point x="269" y="68"/>
      <point x="182" y="68" type="curve"/>
      <point x="94" y="68"/>
      <point x="79" y="153"/>
      <point x="79" y="255" type="curve"/>
      <point x="70" y="255"/>
      <point x="65" y="255"/>
      <point x="56" y="255" type="curve"/>
      <point x="56" y="141"/>
      <point x="81" y="47"/>
      <point x="181" y="47" type="curve"/>
      <point x="281" y="47"/>
      <point x="305" y="142"/>
      <point x="305" y="257" type="curve"/>
      <point x="305" y="370"/>
      <point x="280" y="463"/>
      <point x="181" y="463" type="curve"/>
      <point x="81" y="463"/>
      <point x="56" y="369"/>
      <point x="56" y="255" type="curve"/>
      <point x="65" y="255"/>
      <point x="70" y="255"/>
    </contour>
  </outline>
</glyph>
<glyph name="guilsinglleft" format="1">
  <advance width="354"/>
  <unicode hex="2039"/>
  <outline>
    <contour>
      <point x="258" y="400" type="curve"/>
      <point x="75" y="288" type="line"/>
      <point x="75" y="264"/>
      <point x="75" y="288"/>
      <point x="75" y="264" type="curve"/>
      <point x="258" y="376" type="line"/>
      <point x="258" y="400"/>
      <point x="258" y="376"/>
    </contour>
    <contour>
      <point x="259" y="176" type="curve"/>
      <point x="75" y="288" type="line"/>
      <point x="75" y="264"/>
      <point x="75" y="288"/>
      <point x="75" y="264" type="curve"/>
      <point x="259" y="153" type="line"/>
      <point x="259" y="176"/>
      <point x="259" y="153"/>
    </contour>
  </outline>
</glyph>
<glyph name="partialdiff" format="1">
  <advance width="417"/>
  <unicode hex="2202"/>
  <outline>
    <contour>
      <point x="332" y="212" type="curve"/>
      <point x="323" y="314"/>
      <point x="286" y="403"/>
      <point x="199" y="403" type="curve"/>
      <point x="115" y="403"/>
      <point x="82" y="314"/>
      <point x="82" y="210" type="curve"/>
      <point x="82" y="107"/>
      <point x="108" y="17"/>
      <point x="191" y="17" type="curve"/>
      <point x="348" y="17"/>
      <point x="328" y="219"/>
      <point x="328" y="420" type="curve"/>
      <point x="328" y="566"/>
      <point x="324" y="706"/>
      <point x="209" y="706" type="curve"/>
      <point x="172" y="706"/>
      <point x="148" y="686"/>
      <point x="130" y="662" type="curve"/>
      <point x="114" y="677"/>
      <point x="130" y="662"/>
      <point x="114" y="677" type="curve"/>
      <point x="140" y="709"/>
      <point x="168" y="728"/>
      <point x="210" y="728" type="curve"/>
      <point x="347" y="728"/>
      <point x="351" y="579"/>
      <point x="351" y="420" type="curve"/>
      <point x="351" y="205"/>
      <point x="375" y="-5"/>
      <point x="191" y="-5" type="curve"/>
      <point x="90" y="-5"/>
      <point x="58" y="92"/>
      <point x="58" y="207" type="curve"/>
      <point x="58" y="325"/>
      <point x="94" y="424"/>
      <point x="198" y="424" type="curve"/>
      <point x="305" y="424"/>
      <point x="342" y="330"/>
      <point x="349" y="218" type="curve"/>
      <point x="332" y="212"/>
      <point x="349" y="218"/>
    </contour>
  </outline>
</glyph>
<glyph name="divisionslash" format="1">
  <advance width="329"/>
  <unicode hex="2215"/>
  <outline>
    <contour>
      <point x="29" y="-93" type="line"/>
      <point x="328" y="757" type="line"/>
      <point x="300" y="757" type="line"/>
      <point x="2" y="-93" type="line"/>
    </contour>
  </outline>
</glyph>
<glyph name="approxequal" format="1">
  <advance width="538"/>
  <unicode hex="2248"/>
  <outline>
    <contour>
      <point x="429" y="344" type="curve"/>
      <point x="418" y="299"/>
      <point x="411" y="241"/>
      <point x="360" y="241" type="curve"/>
      <point x="324" y="241"/>
      <point x="304" y="261"/>
      <point x="281" y="290" type="curve"/>
      <point x="255" y="322"/>
      <point x="232" y="345"/>
      <point x="192" y="345" type="curve"/>
      <point x="124" y="345"/>
      <point x="107" y="292"/>
      <point x="95" y="224" type="curve"/>
      <point x="115" y="219"/>
      <point x="95" y="224"/>
      <point x="115" y="219" type="curve"/>
      <point x="125" y="271"/>
      <point x="135" y="323"/>
      <point x="190" y="323" type="curve"/>
      <point x="222" y="323"/>
      <point x="239" y="304"/>
      <point x="259" y="279" type="curve"/>
      <point x="288" y="244"/>
      <point x="313" y="220"/>
      <point x="358" y="220" type="curve"/>
      <point x="424" y="220"/>
      <point x="436" y="277"/>
      <point x="450" y="340" type="curve"/>
      <point x="429" y="344"/>
      <point x="450" y="340"/>
    </contour>
    <contour>
      <point x="426" y="496" type="curve"/>
      <point x="415" y="451"/>
      <point x="408" y="393"/>
      <point x="357" y="393" type="curve"/>
      <point x="321" y="393"/>
      <point x="301" y="413"/>
      <point x="278" y="442" type="curve"/>
      <point x="252" y="474"/>
      <point x="229" y="497"/>
      <point x="189" y="497" type="curve"/>
      <point x="121" y="497"/>
      <point x="104" y="444"/>
      <point x="92" y="376" type="curve"/>
      <point x="112" y="371"/>
      <point x="92" y="376"/>
      <point x="112" y="371" type="curve"/>
      <point x="122" y="423"/>
      <point x="132" y="475"/>
      <point x="187" y="475" type="curve"/>
      <point x="219" y="475"/>
      <point x="236" y="456"/>
      <point x="256" y="431" type="curve"/>
      <point x="285" y="396"/>
      <point x="310" y="372"/>
      <point x="355" y="372" type="curve"/>
      <point x="421" y="372"/>
      <point x="433" y="429"/>
      <point x="447" y="492" type="curve"/>
      <point x="426" y="496"/>
      <point x="447" y="492"/>
    </contour>
  </outline>
</glyph>
<glyph name="lessequal" format="1">
  <advance width="586"/>
  <unicode hex="2264"/>
  <outline>
    <contour>
      <point x="505" y="679" type="curve"/>
      <point x="361" y="591"/>
      <point x="216" y="504"/>
      <point x="72" y="416" type="curve"/>
      <point x="72" y="392"/>
      <point x="72" y="413"/>
      <point x="72" y="389" type="curve"/>
      <point x="216" y="477"/>
      <point x="361" y="565"/>
      <point x="505" y="652" type="curve"/>
      <point x="505" y="676"/>
      <point x="505" y="655"/>
    </contour>
    <contour>
      <point x="505" y="149" type="curve"/>
      <point x="361" y="237"/>
      <point x="216" y="325"/>
      <point x="72" y="413" type="curve"/>
      <point x="72" y="389"/>
      <point x="72" y="410"/>
      <point x="72" y="386" type="curve"/>
      <point x="216" y="298"/>
      <point x="361" y="210"/>
      <point x="505" y="123" type="curve"/>
      <point x="505" y="146"/>
      <point x="505" y="126"/>
    </contour>
    <contour>
      <point x="72" y="0" type="curve"/>
      <point x="216" y="0"/>
      <point x="361" y="0"/>
      <point x="505" y="0" type="curve"/>
      <point x="505" y="23"/>
      <point x="505" y="0"/>
      <point x="505" y="23" type="curve"/>
      <point x="361" y="23"/>
      <point x="216" y="23"/>
      <point x="72" y="23" type="curve"/>
      <point x="72" y="0"/>
      <point x="72" y="23"/>
    </contour>
  </outline>
</glyph>
<glyph name="lozenge" format="1">
  <advance width="372"/>
  <unicode hex="25CA"/>
  <outline>
    <contour>
      <point x="75" y="466" type="curve"/>
      <point x="116" y="581"/>
      <point x="157" y="695"/>
      <point x="197" y="810" type="curve"/>
      <point x="173" y="810"/>
      <point x="197" y="810"/>
      <point x="173" y="810" type="curve"/>
      <point x="132" y="695"/>
      <point x="92" y="581"/>
      <point x="51" y="466" type="curve"/>
      <point x="75" y="466"/>
      <point x="51" y="466"/>
    </contour>
    <contour>
      <point x="321" y="466" type="curve"/>
      <point x="281" y="577"/>
      <point x="237" y="699"/>
      <point x="197" y="810" type="curve"/>
      <point x="173" y="810"/>
      <point x="197" y="810"/>
      <point x="173" y="810" type="curve"/>
      <point x="213" y="699"/>
      <point x="257" y="577"/>
      <point x="297" y="466" type="curve"/>
      <point x="321" y="466"/>
      <point x="297" y="466"/>
    </contour>
    <contour>
      <point x="75" y="466" type="curve"/>
      <point x="116" y="351"/>
      <point x="157" y="237"/>
      <point x="197" y="122" type="curve"/>
      <point x="173" y="122"/>
      <point x="197" y="122"/>
      <point x="173" y="122" type="curve"/>
      <point x="132" y="237"/>
      <point x="92" y="351"/>
      <point x="51" y="466" type="curve"/>
      <point x="75" y="466"/>
      <point x="51" y="466"/>
    </contour>
    <contour>
      <point x="321" y="466" type="curve"/>
      <point x="281" y="355"/>
      <point x="237" y="233"/>
      <point x="197" y="122" type="curve"/>
      <point x="173" y="122"/>
      <point x="197" y="122"/>
      <point x="173" y="122" type="curve"/>
      <point x="213" y="233"/>
      <point x="257" y="355"/>
      <point x="297" y="466" type="curve"/>
      <point x="321" y="466"/>
      <point x="297" y="466"/>
    </contour>
  </outline>
</glyph>
<glyph name="dvBH_LA" format="1">
  <advance width="977"/>
  <outline>
    <contour>
      <point x="818" y="-26" type="move" name="blwm.virama"/>
    </contour>
    <contour>
      <point x="792" y="722" type="move" name="abvm.e"/>
    </contour>
    <contour>
      <point x="811" y="-104" type="move" name="blwm.u"/>
    </contour>
    <component base="dvBH" xOffset="12"/>
    <component base="dvLA_base" xOffset="415"/>
    <component base="dvTopbar" xScale="0.815655980651" xOffset="449"/>
    <component base="dvStem_short" yScale="0.952974639683" xOffset="489" yOffset="33"/>
  </outline>
</glyph>
<glyph name="dvConnector_straight" format="1">
  <advance width="500"/>
  <outline>
    <contour>
      <point x="80" y="460" type="line"/>
      <point x="406" y="460" type="line"/>
      <point x="406" y="482" type="line"/>
      <point x="80" y="482" type="line"/>
    </contour>
  </outline>
</glyph>
<glyph name="dvDA_short" format="1">
  <advance width="500"/>
  <outline>
    <contour>
      <point x="322" y="532" type="curve"/>
      <point x="322" y="581"/>
      <point x="322" y="631"/>
      <point x="322" y="680" type="curve"/>
      <point x="298" y="680"/>
      <point x="322" y="680"/>
      <point x="298" y="680" type="curve"/>
      <point x="298" y="638"/>
      <point x="298" y="596"/>
      <point x="298" y="553" type="curve"/>
      <point x="322" y="532"/>
      <point x="298" y="553"/>
    </contour>
    <contour>
      <point x="331" y="357" type="line"/>
      <point x="331" y="267"/>
      <point x="287" y="196"/>
      <point x="216" y="196" type="curve"/>
      <point x="116" y="196"/>
      <point x="73" y="274"/>
      <point x="73" y="370" type="curve"/>
      <point x="73" y="467"/>
      <point x="147" y="532"/>
      <point x="261" y="532" type="curve"/>
      <point x="283" y="532"/>
      <point x="300" y="532"/>
      <point x="322" y="532" type="curve"/>
      <point x="313" y="540"/>
      <point x="307" y="545"/>
      <point x="298" y="553" type="curve"/>
      <point x="285" y="553"/>
      <point x="274" y="553"/>
      <point x="261" y="553" type="curve"/>
      <point x="133" y="553"/>
      <point x="49" y="479"/>
      <point x="49" y="368" type="curve"/>
      <point x="49" y="261"/>
      <point x="101" y="175"/>
      <point x="214" y="175" type="curve"/>
      <point x="306" y="175"/>
      <point x="352" y="253"/>
      <point x="352" y="353" type="curve"/>
    </contour>
  </outline>
</glyph>
<glyph name="dvDDA_base" format="1">
  <advance width="415"/>
  <outline>
    <contour>
      <point x="51" y="131" type="line"/>
      <point x="78" y="57"/>
      <point x="120" y="-9"/>
      <point x="218" y="-9" type="curve"/>
      <point x="327" y="-9"/>
      <point x="375" y="67"/>
      <point x="375" y="168" type="curve"/>
      <point x="374" y="260"/>
      <point x="331" y="325"/>
      <point x="246" y="325" type="curve"/>
      <point x="198" y="326"/>
      <point x="160" y="310"/>
      <point x="123" y="276" type="curve"/>
      <point x="123" y="263"/>
      <point x="122" y="256"/>
      <point x="121" y="246" type="curve"/>
      <point x="161" y="284"/>
      <point x="195" y="303"/>
      <point x="244" y="303" type="curve"/>
      <point x="315" y="303"/>
      <point x="351" y="247"/>
      <point x="350" y="168" type="curve"/>
      <point x="350" y="81"/>
      <point x="313" y="14"/>
      <point x="218" y="14" type="curve"/>
      <point x="130" y="14"/>
      <point x="97" y="79"/>
      <point x="71" y="144" type="curve"/>
    </contour>
    <contour>
      <point x="268" y="524" type="curve"/>
      <point x="248" y="524"/>
      <point x="234" y="523"/>
      <point x="214" y="523" type="curve"/>
      <point x="122" y="523"/>
      <point x="61" y="474"/>
      <point x="61" y="389" type="curve"/>
      <point x="62" y="327"/>
      <point x="79" y="285"/>
      <point x="121" y="246" type="curve"/>
      <point x="122" y="256"/>
      <point x="123" y="263"/>
      <point x="123" y="276" type="curve"/>
      <point x="95" y="305"/>
      <point x="86" y="341"/>
      <point x="86" y="389" type="curve"/>
      <point x="86" y="459"/>
      <point x="136" y="502"/>
      <point x="214" y="502" type="curve"/>
      <point x="243" y="502"/>
      <point x="263" y="503"/>
      <point x="292" y="503" type="curve"/>
      <point x="283" y="511"/>
      <point x="277" y="516"/>
    </contour>
    <contour>
      <point x="292" y="503" type="curve"/>
      <point x="292" y="580"/>
      <point x="292" y="634"/>
      <point x="292" y="711" type="curve"/>
      <point x="283" y="711"/>
      <point x="277" y="711"/>
      <point x="268" y="711" type="curve"/>
      <point x="268" y="642"/>
      <point x="268" y="593"/>
      <point x="268" y="524" type="curve"/>
      <point x="277" y="516"/>
      <point x="283" y="511"/>
    </contour>
  </outline>
</glyph>
<glyph name="dvD_DA" format="1">
  <advance width="439"/>
  <outline>
    <contour>
      <point x="388" y="-85" type="move" name="blwm.virama"/>
    </contour>
    <contour>
      <point x="271" y="720" type="move" name="abvm.e"/>
    </contour>
    <contour>
      <point x="388" y="-82" type="move" name="blwm.u"/>
    </contour>
    <component base="dvTopbar" xScale="0.681626362279" xOffset="-2"/>
    <component base="dvStroke_down" yScale="0.794932220442" xOffset="37" yOffset="-83"/>
    <component base="dvD_DA_base" yOffset="13"/>
  </outline>
</glyph>
<glyph name="dvD_MA" format="1">
  <advance width="573"/>
  <outline>
    <contour>
      <point x="492" y="-174" type="move" name="blwm.virama"/>
    </contour>
    <contour>
      <point x="491" y="722" type="move" name="abvm.e"/>
    </contour>
    <contour>
      <point x="492" y="-142" type="move" name="blwm.u"/>
    </contour>
    <component base="dvMA_base" xOffset="60" yOffset="-328"/>
    <component base="dvDA_short" xOffset="-19" yOffset="31"/>
    <component base="dvTopbar" xScale="0.867611448202" xOffset="6"/>
    <component base="dvStem_short" yScale="3.85696999926" xOffset="190" yOffset="-2023"/>
  </outline>
</glyph>
<glyph name="dvDoublevirama" format="1">
  <advance width="500"/>
  <outline>
    <contour>
      <point x="117" y="-221" type="line"/>
      <point x="246" y="-64" type="line"/>
      <point x="216" y="-64" type="line"/>
      <point x="82" y="-221" type="line"/>
    </contour>
    <contour>
      <point x="386" y="-221" type="line"/>
      <point x="252" y="-64" type="line"/>
      <point x="224" y="-64" type="line"/>
      <point x="353" y="-221" type="line"/>
    </contour>
  </outline>
</glyph>
<glyph name="dvEyelash" format="1">
  <advance width="0"/>
  <outline>
    <contour>
      <point x="1" y="587" type="line"/>
      <point x="1" y="494"/>
      <point x="30" y="411"/>
      <point x="126" y="411" type="curve"/>
      <point x="168" y="411"/>
      <point x="200" y="427"/>
      <point x="217" y="473" type="curve"/>
      <point x="197" y="479" type="line"/>
      <point x="181" y="444"/>
      <point x="157" y="432"/>
      <point x="125" y="432" type="curve"/>
      <point x="54" y="432"/>
      <point x="25" y="507"/>
      <point x="25" y="587" type="curve"/>
    </contour>
    <component base="dvTopbar" xScale="0.341120592166" xOffset="-14"/>
  </outline>
</glyph>
<glyph name="dvJ_BA" format="1">
  <advance width="876"/>
  <outline>
    <contour>
      <point x="31" y="486" type="line"/>
      <point x="42" y="314"/>
      <point x="37" y="118"/>
      <point x="190" y="118" type="curve"/>
      <point x="279" y="118"/>
      <point x="329" y="207"/>
      <point x="329" y="304" type="curve"/>
      <point x="329" y="405"/>
      <point x="293" y="504"/>
      <point x="205" y="504" type="curve"/>
      <point x="205" y="497"/>
      <point x="205" y="489"/>
      <point x="205" y="482" type="curve"/>
      <point x="282" y="482"/>
      <point x="305" y="391"/>
      <point x="305" y="302" type="curve"/>
      <point x="305" y="218"/>
      <point x="262" y="139"/>
      <point x="191" y="139" type="curve"/>
      <point x="53" y="139"/>
      <point x="65" y="330"/>
      <point x="51" y="491" type="curve"/>
    </contour>
    <contour>
      <point x="475" y="504" type="curve"/>
      <point x="386" y="504"/>
      <point x="295" y="504"/>
      <point x="205" y="504" type="curve"/>
      <point x="205" y="482"/>
      <point x="205" y="504"/>
      <point x="205" y="482" type="curve"/>
      <point x="295" y="482"/>
      <point x="386" y="482"/>
      <point x="475" y="482" type="curve"/>
      <point x="475" y="504"/>
      <point x="475" y="482"/>
    </contour>
    <contour>
      <point x="-20" y="700" type="line"/>
      <point x="482" y="700" type="line"/>
      <point x="482" y="722" type="line"/>
      <point x="-20" y="722" type="line"/>
    </contour>
    <component base="dvBA" xOffset="372"/>
  </outline>
</glyph>
<glyph name="dvJ_DA" format="1">
  <advance width="794"/>
  <outline>
    <contour>
      <point x="726" y="-6" type="move" name="blwm.virama"/>
    </contour>
    <contour>
      <point x="691" y="718" type="move" name="abvm.e"/>
    </contour>
    <contour>
      <point x="718" y="-81" type="move" name="blwm.u"/>
    </contour>
    <component base="dvTopbar" xOffset="-12"/>
    <component base="dvDA" xOffset="372"/>
    <component base="dvJ_base" xOffset="5" yOffset="3"/>
  </outline>
</glyph>
<glyph name="dvKA_right" format="1">
  <advance width="500"/>
  <outline>
    <contour>
      <point x="357" y="400" type="curve"/>
      <point x="371" y="469"/>
      <point x="412" y="525"/>
      <point x="473" y="525" type="curve"/>
      <point x="556" y="525"/>
      <point x="578" y="445"/>
      <point x="578" y="357" type="curve"/>
      <point x="578" y="283"/>
      <point x="566" y="230"/>
      <point x="512" y="167" type="curve"/>
      <point x="527" y="147" type="line"/>
      <point x="579" y="203"/>
      <point x="603" y="272"/>
      <point x="603" y="356" type="curve"/>
      <point x="603" y="456"/>
      <point x="569" y="546"/>
      <point x="473" y="546" type="curve"/>
      <point x="397" y="546"/>
      <point x="356" y="483"/>
      <point x="342" y="404" type="curve"/>
      <point x="347" y="403"/>
      <point x="352" y="401"/>
    </contour>
  </outline>
</glyph>
<glyph name="dvKH_close" format="1">
  <advance width="500"/>
  <outline>
    <contour>
      <point x="552" y="357" type="curve"/>
      <point x="552" y="459"/>
      <point x="510" y="540"/>
      <point x="418" y="540" type="curve"/>
      <point x="328" y="540"/>
      <point x="287" y="461"/>
      <point x="287" y="361" type="curve"/>
      <point x="287" y="255"/>
      <point x="324" y="168"/>
      <point x="418" y="168" type="curve"/>
      <point x="509" y="168"/>
      <point x="552" y="250"/>
      <point x="552" y="357" type="curve"/>
      <point x="543" y="357"/>
      <point x="537" y="357"/>
      <point x="528" y="357" type="curve"/>
      <point x="528" y="264"/>
      <point x="495" y="190"/>
      <point x="418" y="190" type="curve"/>
      <point x="337" y="190"/>
      <point x="311" y="269"/>
      <point x="311" y="361" type="curve"/>
      <point x="311" y="447"/>
      <point x="341" y="518"/>
      <point x="418" y="518" type="curve"/>
      <point x="496" y="518"/>
      <point x="528" y="445"/>
      <point x="528" y="357" type="curve"/>
      <point x="537" y="357"/>
      <point x="543" y="357"/>
    </contour>
  </outline>
</glyph>
<glyph name="dvK_LA" format="1">
  <advance width="1125"/>
  <outline>
    <contour>
      <point x="977" y="4" type="move" name="blwm.virama"/>
    </contour>
    <contour>
      <point x="923" y="719" type="move" name="abvm.e"/>
    </contour>
    <contour>
      <point x="969" y="-62" type="move" name="blwm.u"/>
    </contour>
    <component base="dvLA" xOffset="480"/>
    <component base="dvK" xOffset="-18"/>
  </outline>
</glyph>
<glyph name="dvK_RA" format="1">
  <advance width="683"/>
  <outline>
    <contour>
      <point x="342" y="-38" type="move" name="blwm.virama"/>
    </contour>
    <contour>
      <point x="339" y="722" type="move" name="abvm.e"/>
    </contour>
    <contour>
      <point x="343" y="-89" type="move" name="blwm.u"/>
    </contour>
    <component base="dvKA"/>
    <component base="dvRaker" xOffset="17" yOffset="-34"/>
  </outline>
</glyph>
<glyph name="dvK_TA" format="1">
  <advance width="720"/>
  <outline>
    <contour>
      <point x="400" y="-33" type="move" name="blwm.virama"/>
    </contour>
    <contour>
      <point x="399" y="722" type="move" name="abvm.e"/>
    </contour>
    <contour>
      <point x="400" y="-107" type="move" name="blwm.u"/>
    </contour>
    <component base="dvConnector_straight" xScale="1.13442831494" xOffset="-74" yOffset="-13"/>
    <component base="dvTopbar" xScale="1.10929652248" xOffset="-11"/>
    <component base="dvTA" xOffset="14"/>
    <component base="dvKA_right" xOffset="39" yOffset="-74"/>
  </outline>
</glyph>
<glyph name="dvKx_PHxA" format="1">
  <advance width="1173"/>
  <outline>
    <contour>
      <point x="866" y="-43" type="move" name="blwm.virama"/>
    </contour>
    <contour>
      <point x="866" y="720" type="move" name="abvm.e"/>
    </contour>
    <contour>
      <point x="920" y="-113" type="move" name="blwm.u"/>
    </contour>
    <component base="dvPHA" xOffset="501"/>
    <component base="dvAnusvara" xOffset="316" yOffset="-906"/>
    <component base="dvAnusvara" xOffset="788" yOffset="-813"/>
    <component base="dvK" xOffset="-18"/>
  </outline>
</glyph>
<glyph name="dvLA_base" format="1">
  <advance width="500"/>
  <outline>
    <contour>
      <point x="209" y="9" type="curve"/>
      <point x="122" y="91"/>
      <point x="60" y="192"/>
      <point x="60" y="328" type="curve"/>
      <point x="60" y="418"/>
      <point x="86" y="492"/>
      <point x="153" y="492" type="curve"/>
      <point x="206" y="492"/>
      <point x="240" y="451"/>
      <point x="270" y="404" type="curve"/>
      <point x="281" y="422" type="curve"/>
      <point x="249" y="471"/>
      <point x="215" y="513"/>
      <point x="155" y="513" type="curve"/>
      <point x="67" y="513"/>
      <point x="36" y="431"/>
      <point x="36" y="327" type="curve"/>
      <point x="36" y="183"/>
      <point x="102" y="78"/>
      <point x="196" y="-9" type="curve"/>
    </contour>
    <contour>
      <point x="271" y="277" type="curve"/>
      <point x="271" y="388"/>
      <point x="278" y="492"/>
      <point x="366" y="492" type="curve"/>
      <point x="445" y="492"/>
      <point x="468" y="416"/>
      <point x="471" y="333" type="curve"/>
      <point x="468" y="254"/>
      <point x="458" y="196"/>
      <point x="405" y="131" type="curve"/>
      <point x="420" y="111" type="curve"/>
      <point x="471" y="169"/>
      <point x="493" y="243"/>
      <point x="496" y="332" type="curve"/>
      <point x="493" y="427"/>
      <point x="459" y="513"/>
      <point x="369" y="513" type="curve"/>
      <point x="260" y="513"/>
      <point x="251" y="407"/>
      <point x="251" y="277" type="curve"/>
    </contour>
  </outline>
</glyph>
<glyph name="dvL_DDHA" format="1">
  <advance width="902"/>
  <outline>
    <contour>
      <point x="805" y="-46" type="move" name="blwm.virama"/>
    </contour>
    <contour>
      <point x="784" y="719" type="move" name="abvm.e"/>
    </contour>
    <contour>
      <point x="805" y="-124" type="move" name="blwm.u"/>
    </contour>
    <component base="dvTopbar" xScale="1.27613829878" xOffset="-10"/>
    <component base="dvLA_open" xOffset="36" yOffset="-18"/>
    <component base="dvDDHA" xOffset="465"/>
  </outline>
</glyph>
<glyph name="dvL_TTHA" format="1">
  <advance width="922"/>
  <outline>
    <contour>
      <point x="759" y="-3" type="move" name="blwm.virama"/>
    </contour>
    <contour>
      <point x="702" y="719" type="move" name="abvm.e"/>
    </contour>
    <contour>
      <point x="779" y="-88" type="move" name="blwm.u"/>
    </contour>
    <component base="dvTopbar" xScale="0.900240798778" xOffset="-13"/>
    <component base="dvLA_open" xOffset="51" yOffset="-11"/>
    <component base="dvTTHA" xOffset="442"/>
  </outline>
</glyph>
<glyph name="dvMA_base" format="1">
  <advance width="500"/>
  <outline>
    <contour>
      <point x="250" y="712" type="line"/>
      <point x="250" y="565"/>
      <point x="250" y="455"/>
      <point x="250" y="308" type="curve"/>
      <point x="250" y="221"/>
      <point x="230" y="142"/>
      <point x="158" y="142" type="curve"/>
      <point x="84" y="142"/>
      <point x="53" y="207"/>
      <point x="53" y="286" type="curve"/>
      <point x="53" y="368"/>
      <point x="110" y="425"/>
      <point x="183" y="425" type="curve"/>
      <point x="274" y="425"/>
      <point x="341" y="425"/>
      <point x="431" y="425" type="curve"/>
      <point x="431" y="433"/>
      <point x="431" y="439"/>
      <point x="431" y="447" type="curve"/>
      <point x="342" y="447"/>
      <point x="274" y="447"/>
      <point x="184" y="447" type="curve"/>
      <point x="89" y="447"/>
      <point x="28" y="382"/>
      <point x="28" y="285" type="curve"/>
      <point x="28" y="195"/>
      <point x="67" y="121"/>
      <point x="157" y="121" type="curve"/>
      <point x="255" y="121"/>
      <point x="274" y="208"/>
      <point x="274" y="308" type="curve"/>
      <point x="274" y="455"/>
      <point x="274" y="565"/>
      <point x="274" y="712" type="curve"/>
    </contour>
  </outline>
</glyph>
<glyph name="dvM_RA" format="1">
  <advance width="557"/>
  <outline>
    <contour>
      <point x="444" y="-100" type="move" name="blwm.u"/>
    </contour>
    <component base="dvM"/>
    <component base="dvRaker" xOffset="122" yOffset="19"/>
    <component base="dvStemright" xOffset="334"/>
  </outline>
</glyph>
<glyph name="dvNG_RA" format="1">
  <advance width="457"/>
  <outline>
    <contour>
      <point x="282" y="-171" type="move" name="blwm.virama"/>
    </contour>
    <contour>
      <point x="277" y="720" type="move" name="abvm.e"/>
    </contour>
    <contour>
      <point x="329" y="-231" type="move" name="blwm.u"/>
    </contour>
    <component base="dvDDA"/>
    <component base="dvAnusvara" xOffset="481" yOffset="-505"/>
    <component base="dvDoublevirama" xOffset="-21" yOffset="67"/>
  </outline>
</glyph>
<glyph name="dvN_DA" format="1">
  <advance width="778"/>
  <outline>
    <contour>
      <point x="713" y="-47" type="move" name="blwm.virama"/>
    </contour>
    <contour>
      <point x="677" y="722" type="move" name="abvm.e"/>
    </contour>
    <contour>
      <point x="713" y="-128" type="move" name="blwm.u"/>
    </contour>
    <component base="dvNA_base" xOffset="7" yOffset="9"/>
    <component base="dvDA" xOffset="356"/>
    <component base="dvTopbar" xOffset="-12"/>
  </outline>
</glyph>
<glyph name="dvN_D_RA" format="1">
  <advance width="765"/>
  <outline>
    <contour>
      <point x="693" y="-62" type="move" name="blwm.virama"/>
    </contour>
    <contour>
      <point x="661" y="720" type="move" name="abvm.e"/>
    </contour>
    <contour>
      <point x="693" y="-143" type="move" name="blwm.u"/>
    </contour>
    <component base="dvN"/>
    <component base="dvD_RA" xOffset="343"/>
  </outline>
</glyph>
<glyph name="dvN_PHA" format="1">
  <advance width="1019"/>
  <outline>
    <contour>
      <point x="715" y="0" type="move" name="blwm.virama"/>
    </contour>
    <contour>
      <point x="711" y="721" type="move" name="abvm.e"/>
    </contour>
    <contour>
      <point x="715" y="0" type="move" name="blwm.u"/>
    </contour>
    <component base="dvPHA" xOffset="347"/>
    <component base="dvN"/>
  </outline>
</glyph>
<glyph name="dvN_S_TTA" format="1">
  <advance width="1117"/>
  <outline>
    <contour>
      <point x="980" y="-35" type="move" name="blwm.virama"/>
    </contour>
    <contour>
      <point x="946" y="721" type="move" name="abvm.e"/>
    </contour>
    <contour>
      <point x="1000" y="-110" type="move" name="blwm.u"/>
    </contour>
    <component base="dvConnector_straight" xOffset="340" yOffset="-95"/>
    <component base="dvTTA" xOffset="674"/>
    <component base="dvNA_base" xOffset="-1" yOffset="-76"/>
    <component base="dvS" xOffset="359"/>
    <component base="dvTopbar" xOffset="-12"/>
  </outline>
</glyph>
<glyph name="dvPHx_PHxA" format="1">
  <advance width="1176"/>
  <outline>
    <contour>
      <point x="871" y="-37" type="move" name="blwm.virama"/>
    </contour>
    <contour>
      <point x="867" y="721" type="move" name="abvm.e"/>
    </contour>
    <contour>
      <point x="930" y="-114" type="move" name="blwm.u"/>
    </contour>
    <component base="dvPHA" xOffset="504"/>
    <component base="dvAnusvara" xOffset="270" yOffset="-837"/>
    <component base="dvAnusvara" xOffset="785" yOffset="-844"/>
    <component base="dvPH" xOffset="-12"/>
  </outline>
</glyph>
<glyph name="dvRA_mU" format="1">
  <advance width="575"/>
  <outline>
    <contour>
      <point x="399" y="69" type="curve"/>
      <point x="474" y="119"/>
      <point x="518" y="183"/>
      <point x="518" y="277" type="curve"/>
      <point x="518" y="394"/>
      <point x="439" y="477"/>
      <point x="305" y="477" type="curve"/>
      <point x="262" y="477"/>
      <point x="230" y="477"/>
      <point x="187" y="477" type="curve"/>
      <point x="187" y="469"/>
      <point x="187" y="463"/>
      <point x="187" y="455" type="curve"/>
      <point x="230" y="455"/>
      <point x="261" y="455"/>
      <point x="304" y="455" type="curve"/>
      <point x="424" y="455"/>
      <point x="493" y="380"/>
      <point x="493" y="277" type="curve"/>
      <point x="493" y="191"/>
      <point x="454" y="134"/>
      <point x="386" y="88" type="curve"/>
      <point x="391" y="81"/>
      <point x="394" y="76"/>
    </contour>
    <component base="dvTopbar" xScale="0.916304753675" xOffset="-17"/>
    <component base="dvRA_base"/>
  </outline>
</glyph>
<glyph name="dvRaker" format="1">
  <advance width="500"/>
  <outline>
    <contour>
      <point x="319" y="269" type="move" name="_top"/>
    </contour>
    <contour>
      <point x="122" y="-39" type="line"/>
      <point x="320" y="269" type="line"/>
      <point x="300" y="282" type="line"/>
      <point x="102" y="-25" type="line"/>
    </contour>
  </outline>
</glyph>
<glyph name="dvReph" format="1">
  <advance width="0"/>
  <outline>
    <contour>
      <point x="-72" y="723" type="move" name="_abvm.e"/>
    </contour>
    <contour>
      <point x="-68" y="708" type="curve"/>
      <point x="-83" y="723"/>
      <point x="-97" y="792"/>
      <point x="-97" y="842" type="curve"/>
      <point x="-97" y="913"/>
      <point x="-72" y="986"/>
      <point x="-19" y="984" type="curve"/>
      <point x="51" y="984"/>
      <point x="81" y="916"/>
      <point x="97" y="844" type="curve"/>
      <point x="116" y="850" type="line"/>
      <point x="98" y="932"/>
      <point x="67" y="1005"/>
      <point x="-20" y="1005" type="curve"/>
      <point x="-94" y="1007"/>
      <point x="-120" y="927"/>
      <point x="-120" y="844" type="curve"/>
      <point x="-120" y="790"/>
      <point x="-102" y="714"/>
      <point x="-87" y="698" type="curve"/>
      <point x="-80" y="702"/>
      <point x="-75" y="704"/>
    </contour>
  </outline>
</glyph>
<glyph name="dvSH_CHA" format="1">
  <advance width="980"/>
  <outline>
    <contour>
      <point x="819" y="-9" type="move" name="blwm.virama"/>
    </contour>
    <contour>
      <point x="828" y="718" type="move" name="abvm.e"/>
    </contour>
    <contour>
      <point x="836" y="-95" type="move" name="blwm.u"/>
    </contour>
    <component base="dvCHA" xOffset="400"/>
    <component base="dvSH"/>
  </outline>
</glyph>
<glyph name="dvSH_KxA" format="1">
  <advance width="1103"/>
  <outline>
    <contour>
      <point x="761" y="-19" type="move" name="blwm.virama"/>
    </contour>
    <contour>
      <point x="759" y="721" type="move" name="abvm.e"/>
    </contour>
    <contour>
      <point x="761" y="0" type="move" name="blwm.u"/>
    </contour>
    <component base="dvKxA" xOffset="420"/>
    <component base="dvSH"/>
  </outline>
</glyph>
<glyph name="dvSH_TTA" format="1">
  <advance width="856"/>
  <outline>
    <contour>
      <point x="721" y="-24" type="move" name="blwm.virama"/>
    </contour>
    <contour>
      <point x="691" y="720" type="move" name="abvm.e"/>
    </contour>
    <contour>
      <point x="752" y="-102" type="move" name="blwm.u"/>
    </contour>
    <component base="dvTTA" xOffset="413"/>
    <component base="dvSH"/>
  </outline>
</glyph>
<glyph name="dvSS_KA" format="1">
  <advance width="979"/>
  <outline>
    <contour>
      <point x="634" y="0" type="move" name="blwm.virama"/>
    </contour>
    <contour>
      <point x="634" y="717" type="move" name="abvm.e"/>
    </contour>
    <contour>
      <point x="634" y="0" type="move" name="blwm.u"/>
    </contour>
    <component base="dvSS"/>
    <component base="dvKA" xOffset="296"/>
  </outline>
</glyph>
<glyph name="dvSS_PHA" format="1">
  <advance width="935"/>
  <outline>
    <contour>
      <point x="630" y="0" type="move" name="blwm.virama"/>
    </contour>
    <contour>
      <point x="627" y="721" type="move" name="abvm.e"/>
    </contour>
    <contour>
      <point x="630" y="0" type="move" name="blwm.u"/>
    </contour>
    <component base="dvSS"/>
    <component base="dvPHA" xOffset="263"/>
  </outline>
</glyph>
<glyph name="dvSS_TTHA" format="1">
  <advance width="742"/>
  <outline>
    <contour>
      <point x="601" y="-3" type="move" name="blwm.virama"/>
    </contour>
    <contour>
      <point x="521" y="720" type="move" name="abvm.e"/>
    </contour>
    <contour>
      <point x="621" y="-88" type="move" name="blwm.u"/>
    </contour>
    <component base="dvSS"/>
    <component base="dvTTHA" xOffset="262"/>
  </outline>
</glyph>
<glyph name="dvSS_TT_RA" format="1">
  <advance width="725"/>
  <outline>
    <contour>
      <point x="603" y="-132" type="move" name="blwm.virama"/>
    </contour>
    <contour>
      <point x="556" y="720" type="move" name="abvm.e"/>
    </contour>
    <contour>
      <point x="635" y="-198" type="move" name="blwm.u"/>
    </contour>
    <component base="dvSS"/>
    <component base="dvTT_RA" xOffset="282"/>
  </outline>
</glyph>
<glyph name="dvS_DA" format="1">
  <advance width="755"/>
  <outline>
    <contour>
      <point x="412" y="453" type="line"/>
      <point x="378" y="419"/>
      <point x="340" y="407"/>
      <point x="292" y="407" type="curve" smooth="yes"/>
      <point x="247" y="407"/>
      <point x="214" y="425"/>
      <point x="176" y="449" type="curve"/>
      <point x="164" y="432" type="line"/>
      <point x="204" y="406"/>
      <point x="243" y="387"/>
      <point x="291" y="387" type="curve" smooth="yes"/>
      <point x="347" y="387"/>
      <point x="394" y="400"/>
      <point x="428" y="444" type="curve"/>
    </contour>
    <component base="dvDA" xOffset="333"/>
    <component base="dvS" xOffset="-12"/>
  </outline>
</glyph>
<glyph name="dvS_TTA" format="1">
  <advance width="815"/>
  <outline>
    <contour>
      <point x="696" y="-35" type="move" name="blwm.virama"/>
    </contour>
    <contour>
      <point x="647" y="720" type="move" name="abvm.e"/>
    </contour>
    <contour>
      <point x="716" y="-110" type="move" name="blwm.u"/>
    </contour>
    <contour>
      <point x="492" y="453" type="line"/>
      <point x="450" y="411"/>
      <point x="402" y="397"/>
      <point x="342" y="397" type="curve" smooth="yes"/>
      <point x="279" y="397"/>
      <point x="230" y="416"/>
      <point x="176" y="449" type="curve"/>
      <point x="164" y="432" type="line"/>
      <point x="221" y="395"/>
      <point x="273" y="377"/>
      <point x="341" y="377" type="curve" smooth="yes"/>
      <point x="409" y="377"/>
      <point x="467" y="391"/>
      <point x="508" y="444" type="curve"/>
    </contour>
    <component base="dvTTA" xOffset="372"/>
    <component base="dvS" xOffset="-12"/>
  </outline>
</glyph>
<glyph name="dvS_base" format="1">
  <advance width="500"/>
  <outline>
    <contour>
      <point x="88" y="386" type="curve"/>
      <point x="169" y="396"/>
      <point x="218" y="450"/>
      <point x="218" y="531" type="curve"/>
      <point x="218" y="594"/>
      <point x="203" y="640"/>
      <point x="167" y="692" type="curve"/>
      <point x="161" y="687"/>
      <point x="155" y="683"/>
      <point x="149" y="678" type="curve"/>
      <point x="184" y="631"/>
      <point x="194" y="587"/>
      <point x="194" y="528" type="curve"/>
      <point x="194" y="453"/>
      <point x="141" y="407"/>
      <point x="64" y="407" type="curve"/>
      <point x="73" y="399"/>
      <point x="79" y="394"/>
    </contour>
    <contour>
      <point x="64" y="407" type="curve"/>
      <point x="72" y="258"/>
      <point x="40" y="107"/>
      <point x="171" y="107" type="curve"/>
      <point x="246" y="107"/>
      <point x="285" y="159"/>
      <point x="305" y="230" type="curve"/>
      <point x="297" y="235"/>
      <point x="293" y="236"/>
      <point x="286" y="240" type="curve"/>
      <point x="266" y="179"/>
      <point x="234" y="131"/>
      <point x="168" y="131" type="curve"/>
      <point x="75" y="131"/>
      <point x="95" y="260"/>
      <point x="88" y="386" type="curve"/>
      <point x="79" y="394"/>
      <point x="73" y="399"/>
    </contour>
  </outline>
</glyph>
<glyph name="dvTTH_TTHA" format="1">
  <advance width="480"/>
  <outline>
    <contour>
      <point x="349" y="-224" type="move" name="blwm.virama"/>
    </contour>
    <contour>
      <point x="255" y="718" type="move" name="abvm.e"/>
    </contour>
    <contour>
      <point x="386" y="-302" type="move" name="blwm.u"/>
    </contour>
    <component base="dvTopbar" xScale="0.759066450979" xOffset="-14"/>
    <component base="dvStem_short" yScale="0.559546498613" xOffset="-50" yOffset="312"/>
    <component base="dvTTH_short"/>
    <component base="dvTTH_short" yOffset="-371"/>
  </outline>
</glyph>
<glyph name="dvTT_TTA" format="1">
  <advance width="463"/>
  <outline>
    <contour>
      <point x="318" y="-214" type="move" name="blwm.virama"/>
    </contour>
    <contour>
      <point x="292" y="720" type="move" name="abvm.e"/>
    </contour>
    <contour>
      <point x="387" y="-281" type="move" name="blwm.u"/>
    </contour>
    <component base="dvTTA_short" xOffset="-278"/>
    <component base="dvTopbar" xScale="0.733780271643" xOffset="-14"/>
    <component base="dvTTA_base" xOffset="-269" yOffset="-363"/>
  </outline>
</glyph>
<glyph name="dvTT_VA" format="1">
  <advance width="470"/>
  <outline>
    <contour>
      <point x="358" y="-211" type="move" name="blwm.virama"/>
    </contour>
    <contour>
      <point x="302" y="719" type="move" name="abvm.e"/>
    </contour>
    <contour>
      <point x="358" y="-215" type="move" name="blwm.u"/>
    </contour>
    <component base="dvTopbar" xScale="0.759066450979" xOffset="-14"/>
    <component base="dvTTA_short" xOffset="-264"/>
    <component base="dvStroke_down" yScale="1.51028477322" xOffset="7" yOffset="-198"/>
    <component base="dvVA_open" xOffset="-49" yOffset="-279"/>
  </outline>
</glyph>
<glyph name="dvmAI_Reph" format="1">
  <advance width="0"/>
  <outline>
    <contour>
      <point x="-78" y="728" type="move" name="_abvm.e"/>
    </contour>
    <component base="dvmAI" xOffset="-17" yOffset="-4"/>
    <component base="dvReph" xOffset="1" yOffset="-10"/>
  </outline>
</glyph>
<glyph name="dvmI.a15" format="1">
  <advance width="265"/>
  <outline>
    <contour>
      <point x="1480" y="707" type="move" name="abvm.i"/>
    </contour>
    <contour>
      <point x="142" y="716" type="curve"/>
      <point x="127" y="746"/>
      <point x="117" y="785"/>
      <point x="117" y="826" type="curve"/>
      <point x="117" y="927"/>
      <point x="267" y="979"/>
      <point x="451" y="979" type="curve"/>
      <point x="958" y="979"/>
      <point x="1284" y="850"/>
      <point x="1468" y="702" type="curve"/>
      <point x="1474" y="706"/>
      <point x="1479" y="709"/>
      <point x="1485" y="713" type="curve"/>
      <point x="1302" y="866"/>
      <point x="966" y="1000"/>
      <point x="453" y="1000" type="curve"/>
      <point x="256" y="1000"/>
      <point x="95" y="943"/>
      <point x="95" y="827" type="curve"/>
      <point x="95" y="782"/>
      <point x="105" y="746"/>
      <point x="121" y="705" type="curve"/>
      <point x="128" y="709"/>
      <point x="135" y="712"/>
    </contour>
    <component base="dvmAA"/>
  </outline>
</glyph>
<glyph name="macronmod" format="1">
  <advance width="268"/>
  <outline>
    <contour>
      <point x="212" y="680" type="curve"/>
      <point x="160" y="680"/>
      <point x="107" y="680"/>
      <point x="55" y="680" type="curve"/>
      <point x="55" y="659"/>
      <point x="55" y="680"/>
      <point x="55" y="659" type="curve"/>
      <point x="107" y="659"/>
      <point x="160" y="659"/>
      <point x="212" y="659" type="curve"/>
      <point x="212" y="680"/>
      <point x="212" y="659"/>
    </contour>
  </outline>
</glyph>
<glyph name="mumath" format="1">
  <advance width="541"/>
  <outline>
    <contour>
      <point x="154" y="-300" type="curve"/>
      <point x="154" y="-23"/>
      <point x="154" y="256"/>
      <point x="154" y="533" type="curve"/>
      <point x="130" y="533"/>
      <point x="154" y="533"/>
      <point x="130" y="533" type="curve"/>
      <point x="130" y="256"/>
      <point x="130" y="-23"/>
      <point x="130" y="-300" type="curve"/>
      <point x="154" y="-300"/>
      <point x="130" y="-300"/>
    </contour>
    <contour>
      <point x="398" y="533" type="curve"/>
      <point x="358" y="533"/>
      <point x="326" y="533"/>
      <point x="286" y="533" type="curve"/>
      <point x="286" y="511"/>
      <point x="286" y="533"/>
      <point x="286" y="511" type="curve"/>
      <point x="407" y="511"/>
      <point x="277" y="511"/>
      <point x="398" y="511" type="curve"/>
      <point x="398" y="533"/>
      <point x="398" y="511"/>
    </contour>
    <contour>
      <point x="142" y="533" type="curve"/>
      <point x="102" y="533"/>
      <point x="70" y="533"/>
      <point x="30" y="533" type="curve"/>
      <point x="30" y="511"/>
      <point x="30" y="533"/>
      <point x="30" y="511" type="curve"/>
      <point x="151" y="511"/>
      <point x="21" y="511"/>
      <point x="142" y="511" type="curve"/>
      <point x="142" y="533"/>
      <point x="142" y="511"/>
    </contour>
    <contour>
      <point x="398" y="0" type="curve"/>
      <point x="436" y="0"/>
      <point x="465" y="0"/>
      <point x="503" y="0" type="curve"/>
      <point x="503" y="22"/>
      <point x="503" y="0"/>
      <point x="503" y="22" type="curve"/>
      <point x="389" y="22"/>
      <point x="512" y="22"/>
      <point x="398" y="22" type="curve"/>
      <point x="398" y="0"/>
      <point x="398" y="22"/>
    </contour>
    <contour>
      <point x="410" y="0" type="curve"/>
      <point x="410" y="178"/>
      <point x="410" y="355"/>
      <point x="410" y="533" type="curve"/>
      <point x="386" y="533"/>
      <point x="410" y="533"/>
      <point x="386" y="533" type="curve"/>
      <point x="386" y="355"/>
      <point x="386" y="178"/>
      <point x="386" y="0" type="curve"/>
      <point x="410" y="0"/>
      <point x="386" y="0"/>
    </contour>
    <contour>
      <point x="389" y="171" type="curve"/>
      <point x="371" y="96"/>
      <point x="323" y="17"/>
      <point x="265" y="17" type="curve"/>
      <point x="179" y="17"/>
      <point x="154" y="91"/>
      <point x="154" y="187" type="curve"/>
      <point x="154" y="302"/>
      <point x="154" y="418"/>
      <point x="154" y="533" type="curve"/>
      <point x="130" y="533"/>
      <point x="154" y="533"/>
      <point x="130" y="533" type="curve"/>
      <point x="130" y="417"/>
      <point x="130" y="301"/>
      <point x="130" y="185" type="curve"/>
      <point x="130" y="76"/>
      <point x="162" y="-5"/>
      <point x="265" y="-5" type="curve"/>
      <point x="341" y="-5"/>
      <point x="384" y="76"/>
      <point x="405" y="161" type="curve"/>
      <point x="389" y="172"/>
      <point x="405" y="161"/>
    </contour>
  </outline>
</glyph>
<glyph name="tcedilla" format="1">
  <advance width="314"/>
  <outline>
    <contour>
      <point x="20" y="511" type="curve"/>
      <point x="294" y="511" type="line"/>
      <point x="294" y="533"/>
      <point x="294" y="511"/>
      <point x="294" y="533" type="curve"/>
      <point x="20" y="533" type="line"/>
      <point x="20" y="511"/>
      <point x="20" y="533"/>
    </contour>
    <contour>
      <point x="275" y="46" type="curve"/>
      <point x="254" y="30"/>
      <point x="236" y="19"/>
      <point x="209" y="19" type="curve"/>
      <point x="152" y="19"/>
      <point x="140" y="72"/>
      <point x="140" y="145" type="curve"/>
      <point x="140" y="681" type="line"/>
      <point x="116" y="657" type="line"/>
      <point x="116" y="143" type="line"/>
      <point x="116" y="56"/>
      <point x="133" y="-5"/>
      <point x="207" y="-5" type="curve"/>
      <point x="239" y="-5"/>
      <point x="261" y="5"/>
      <point x="287" y="24" type="curve"/>
      <point x="275" y="46"/>
      <point x="287" y="24"/>
    </contour>
    <contour>
      <point x="194" y="12" type="curve"/>
      <point x="183" y="-15"/>
      <point x="173" y="-42"/>
      <point x="163" y="-68" type="curve"/>
      <point x="180" y="-86"/>
      <point x="163" y="-68"/>
      <point x="180" y="-86" type="curve"/>
      <point x="190" y="-58"/>
      <point x="202" y="-30"/>
      <point x="212" y="-3" type="curve"/>
      <point x="194" y="12"/>
      <point x="212" y="-3"/>
    </contour>
    <contour>
      <point x="180" y="-86" type="curve"/>
      <point x="189" y="-77"/>
      <point x="196" y="-73"/>
      <point x="209" y="-73" type="curve"/>
      <point x="236" y="-73"/>
      <point x="242" y="-99"/>
      <point x="242" y="-130" type="curve"/>
      <point x="242" y="-162"/>
      <point x="229" y="-185"/>
      <point x="200" y="-185" type="curve"/>
      <point x="181" y="-185"/>
      <point x="167" y="-181"/>
      <point x="153" y="-168" type="curve"/>
      <point x="143" y="-185"/>
      <point x="153" y="-168"/>
      <point x="143" y="-185" type="curve"/>
      <point x="160" y="-200"/>
      <point x="176" y="-207"/>
      <point x="199" y="-207" type="curve"/>
      <point x="243" y="-207"/>
      <point x="267" y="-175"/>
      <point x="267" y="-130" type="curve"/>
      <point x="267" y="-86"/>
      <point x="250" y="-51"/>
      <point x="211" y="-51" type="curve"/>
      <point x="192" y="-51"/>
      <point x="179" y="-57"/>
      <point x="163" y="-68" type="curve"/>
      <point x="180" y="-86"/>
      <point x="163" y="-68"/>
    </contour>
  </outline>
</glyph>
